<svg version="1.1" id="Layer_1" xmlns="http://www.w3.org/2000/svg" xmlns:xlink="http://www.w3.org/1999/xlink" x="0px" y="0px"
	 width="100%" viewBox="0 0 1024 1024" enable-background="new 0 0 1024 1024" xml:space="preserve">
<path fill="#000000" opacity="1.000000" stroke="none" 
	d="
M650.000000,1025.000000 
	C433.333344,1025.000000 217.166672,1025.000000 1.000000,1025.000000 
	C1.000000,683.666687 1.000000,342.333344 1.000000,1.000000 
	C342.333344,1.000000 683.666687,1.000000 1025.000000,1.000000 
	C1025.000000,342.333344 1025.000000,683.666687 1025.000000,1025.000000 
	C900.166687,1025.000000 775.333313,1025.000000 650.000000,1025.000000 
M468.374207,303.961609 
	C468.162750,304.287811 467.951294,304.614014 467.943848,304.948059 
	C467.943848,304.948059 467.943817,304.743927 467.394379,304.964691 
	C467.179779,305.287872 466.965149,305.611084 466.320953,306.052551 
	C466.061829,306.247284 465.937805,306.506622 465.375427,307.131714 
	C464.856323,308.072113 464.337219,309.012543 463.915497,309.950348 
	C463.915497,309.950348 463.903137,309.853729 463.326874,310.135315 
	C462.808167,311.066376 462.289459,311.997437 461.887787,312.925873 
	C461.887787,312.925873 461.871521,312.809937 461.325165,313.094971 
	C461.031342,313.638123 460.737518,314.181274 460.672455,314.788208 
	C460.672455,314.788208 460.700256,314.552399 460.203583,314.865540 
	C460.076843,315.233398 459.950104,315.601288 459.932098,315.951416 
	C459.932098,315.951416 459.905975,315.844452 459.357849,316.165985 
	C459.174042,316.765503 458.990234,317.365021 458.925293,317.941284 
	C458.925293,317.941284 458.892670,317.824615 458.338531,318.264038 
	C457.806915,319.816833 457.275330,321.369598 456.871704,322.924042 
	C456.871704,322.924042 456.858490,322.796753 456.242462,323.219086 
	C455.211182,326.807465 454.179901,330.395813 453.013733,334.495117 
	C453.041229,334.669098 453.068756,334.843048 452.878571,335.882935 
	C452.539703,351.241455 452.200867,366.600006 451.197632,382.155060 
	C439.138397,389.112213 427.079163,396.069366 414.181580,403.326447 
	C414.071808,404.644928 413.866241,405.963409 413.866028,407.281891 
	C413.857910,458.581757 413.868561,509.881592 413.876709,561.181458 
	C413.876862,562.307068 413.876709,563.432617 413.876709,564.704468 
	C419.734131,564.704468 425.273560,564.704468 430.996246,564.704468 
	C430.996246,562.919189 430.996216,561.438354 430.996216,559.957520 
	C430.995941,513.321228 430.992035,466.684967 431.007751,420.048676 
	C431.008423,418.059906 431.190430,416.071167 431.988556,414.027649 
	C457.252075,400.364868 482.535034,386.737701 507.755463,372.995819 
	C511.035431,371.208649 513.672913,370.862549 517.203369,372.869202 
	C529.270752,379.728241 541.596375,386.132446 553.814209,392.727386 
	C567.588013,400.162292 581.351746,407.615875 595.028320,415.984802 
	C595.028320,465.574005 595.028320,515.163208 595.028320,565.500366 
	C601.334900,564.972290 607.085388,564.490723 612.977661,563.080261 
	C612.985291,511.038483 613.003113,458.996704 612.948914,406.954987 
	C612.947327,405.460510 612.180725,403.966858 611.569885,402.212616 
	C611.569885,402.212616 611.263794,402.332733 610.772400,402.025848 
	C610.205444,401.948120 609.638428,401.870392 608.790710,401.169495 
	C598.854797,395.814941 588.918884,390.460388 578.552002,384.906097 
	C578.552002,384.906097 578.091187,384.790924 578.092163,384.891388 
	C578.092163,384.891388 578.191406,384.875946 577.852600,384.333557 
	C577.241882,384.156647 576.631104,383.979736 576.036438,383.919891 
	C576.036438,383.919891 576.151978,383.895142 575.721619,383.200409 
	C575.153442,381.669800 574.109009,380.144409 574.092346,378.607819 
	C573.958496,366.293518 574.066162,353.976807 573.976501,341.661682 
	C573.960266,339.427429 573.379089,337.197235 573.048706,334.157074 
	C570.630615,327.616455 568.722412,320.827209 565.680908,314.590607 
	C560.467834,303.901031 550.936157,297.533264 540.998779,291.002014 
	C540.953735,280.012268 540.908752,269.022522 540.945190,257.227875 
	C539.667664,253.609802 538.869446,249.720673 537.009766,246.431778 
	C533.468384,240.168869 529.497498,234.042053 521.166809,232.017868 
	C521.160522,214.791931 521.181091,197.565872 521.097656,180.340317 
	C521.090881,178.939301 520.372803,177.541733 519.065857,175.995773 
	C514.835693,175.990097 510.601135,175.883316 506.379456,176.069611 
	C505.596741,176.104156 504.866119,177.320053 503.961853,178.738632 
	C504.012909,179.496033 504.063934,180.253433 503.999084,181.940735 
	C504.036896,193.283493 504.074707,204.626251 503.959808,216.801910 
	C504.010620,218.208435 504.061462,219.614944 503.996643,221.933044 
	C503.938995,225.608551 503.881378,229.284058 503.393463,232.983337 
	C503.393463,232.983337 502.990997,233.137222 502.287811,233.094070 
	C500.415588,234.309433 498.543396,235.524811 496.775940,236.753113 
	C496.775940,236.753113 496.754944,236.649658 496.335419,236.797623 
	C496.335419,236.797623 496.027405,237.118591 495.388031,237.317551 
	C489.354950,242.525131 486.061127,249.158676 485.013947,257.951965 
	C485.049408,268.969604 485.084869,279.987274 484.905396,291.445251 
	C484.905396,291.445251 484.758423,291.912720 484.926025,291.915497 
	C484.926025,291.915497 484.917389,291.748077 484.244781,291.900055 
	C483.109802,292.562805 481.974792,293.225525 480.932617,293.902374 
	C480.932617,293.902374 480.934753,293.808502 480.309479,293.969452 
	C479.494568,294.618927 478.679688,295.268372 477.939850,295.947479 
	C477.939850,295.947479 477.923309,295.868469 477.360718,296.028961 
	C476.747711,296.503479 476.134705,296.977997 475.571655,297.543823 
	C475.571655,297.543823 475.634857,297.461121 475.108185,297.733429 
	C474.893890,298.058899 474.679565,298.384399 474.731079,298.723938 
	C474.731079,298.723938 474.705811,298.458954 474.168671,298.721710 
	C473.748932,299.138336 473.329224,299.554993 472.975067,299.992554 
	C472.975067,299.992554 472.957611,299.925995 472.318390,300.011383 
	C471.465851,300.949768 470.613342,301.888184 469.893036,302.865845 
	C469.893036,302.865845 469.915253,302.729797 469.364502,302.950348 
	C469.152100,303.274750 468.939697,303.599152 468.925568,303.931000 
	C468.925568,303.931000 468.922699,303.732605 468.374207,303.961609 
M453.959137,426.982391 
	C453.959137,426.982391 453.945984,426.902863 453.171570,427.199738 
	C452.775635,428.888702 452.043091,430.576172 452.035492,432.266907 
	C451.953156,450.569824 451.960968,468.873291 451.991028,487.176575 
	C452.031494,511.797791 452.113098,536.418945 452.045532,561.915955 
	C452.818909,562.944641 453.546417,564.818970 454.373138,564.863708 
	C459.458801,565.139465 464.566864,565.002014 469.822083,565.002014 
	C469.822083,516.043762 469.822083,467.563477 469.822083,418.300690 
	C465.945038,420.359894 462.488861,422.195587 458.418915,424.094208 
	C457.601196,424.687195 456.783447,425.280182 455.351624,425.925598 
	C454.863861,426.264984 454.376129,426.604370 453.959137,426.982391 
M508.938690,397.931244 
	C508.938690,397.931244 508.936615,397.821533 508.179108,397.975922 
	C504.635010,398.831543 503.904236,401.137939 503.933105,404.606262 
	C504.103546,425.094299 504.008850,445.584473 504.031891,466.073853 
	C504.068573,498.719971 504.127655,531.366089 504.431702,564.840698 
	C509.887421,564.840698 515.343140,564.840698 520.710144,564.840698 
	C520.900757,564.327637 521.097961,564.044617 521.098022,563.761597 
	C521.115417,510.266968 521.125488,456.772369 521.078918,403.277771 
	C521.077881,402.079620 520.425049,400.882080 519.861084,399.201202 
	C519.354431,399.098572 518.847717,398.995941 517.970337,398.261566 
	C514.981384,396.757263 512.027405,394.386627 508.938690,397.931244 
M572.891846,563.970581 
	C573.251465,562.503357 573.902466,561.039978 573.921875,559.568237 
	C574.023010,551.908203 573.959412,544.246033 573.960388,536.584595 
	C573.965088,501.774994 573.989990,466.965393 573.923767,432.155914 
	C573.920593,430.486786 573.648621,427.910522 572.603821,427.304108 
	C567.370911,424.267273 561.838562,421.746552 555.997620,418.838348 
	C555.997620,460.229095 555.997681,500.862366 555.997498,541.495667 
	C555.997437,548.157776 555.903809,554.822449 556.084534,561.479614 
	C556.115234,562.610291 557.320984,563.709167 558.900940,564.973389 
	C563.278687,564.685486 567.656494,564.397583 572.891846,563.970581 
z"/>
<path fill="#DFA859" opacity="1.000000" stroke="none" 
	d="
M578.982971,385.105835 
	C588.918884,390.460388 598.854797,395.814941 609.130371,401.730408 
	C610.067993,402.305145 610.665894,402.318939 611.263794,402.332733 
	C611.263794,402.332733 611.569885,402.212616 611.470825,402.819427 
	C611.251160,405.743073 611.026672,408.059875 611.025330,410.376770 
	C610.995239,461.564575 610.989929,512.752380 610.515259,563.965576 
	C607.723022,563.994629 605.395447,564.004272 603.067932,564.000977 
	C596.000366,563.990967 595.997986,563.989014 595.997498,557.009216 
	C595.994324,511.788208 596.003967,466.567230 595.953064,421.346252 
	C595.950684,419.250977 595.409851,417.156281 595.119873,415.061310 
	C581.351746,407.615875 567.588013,400.162292 553.814209,392.727386 
	C541.596375,386.132446 529.270752,379.728241 517.203369,372.869202 
	C513.672913,370.862549 511.035431,371.208649 507.755463,372.995819 
	C482.535034,386.737701 457.252075,400.364868 431.339996,414.339050 
	C430.464386,416.600220 430.040802,418.549835 430.039154,420.499847 
	C430.001129,464.969513 430.050537,509.439301 429.980347,553.908875 
	C429.962189,565.418579 431.761475,563.687805 419.983429,564.067871 
	C415.979523,564.197021 414.889832,562.803223 414.898987,558.919250 
	C415.021484,506.955231 415.003204,454.990845 415.019897,403.026550 
	C427.079163,396.069366 439.138397,389.112213 451.915588,381.947815 
	C453.083984,380.411743 453.914612,379.086121 453.925903,377.753540 
	C454.035950,364.764343 454.034424,351.773895 453.980652,338.784119 
	C453.975433,337.527222 453.404572,336.272675 453.096252,335.017029 
	C453.068756,334.843048 453.041229,334.669098 453.414246,334.126953 
	C454.829315,330.104767 455.843903,326.450745 456.858490,322.796753 
	C456.858490,322.796753 456.871704,322.924042 457.158325,322.783691 
	C457.927521,321.037079 458.410095,319.430847 458.892670,317.824615 
	C458.892670,317.824615 458.925293,317.941284 459.126343,317.770447 
	C459.520264,317.014557 459.713104,316.429504 459.905945,315.844452 
	C459.905975,315.844452 459.932098,315.951416 460.105469,315.782043 
	C460.419312,315.259247 460.559784,314.905823 460.700256,314.552399 
	C460.700256,314.552399 460.672455,314.788208 460.879883,314.653442 
	C461.348694,313.949127 461.610138,313.379547 461.871521,312.809937 
	C461.871521,312.809937 461.887787,312.925873 462.153076,312.809021 
	C462.913330,311.746033 463.408234,310.799896 463.903137,309.853729 
	C463.903137,309.853729 463.915497,309.950348 464.181793,309.817688 
	C464.948364,308.733582 465.448639,307.782074 465.948883,306.830566 
	C465.937805,306.506622 466.061829,306.247284 466.782318,305.847992 
	C467.477081,305.343597 467.710449,305.043762 467.943817,304.743927 
	C467.943817,304.743927 467.943848,304.948059 468.091309,304.797760 
	C468.466766,304.342499 468.694733,304.037537 468.922699,303.732605 
	C468.922699,303.732605 468.925568,303.931000 469.081207,303.789551 
	C469.462982,303.341980 469.689117,303.035889 469.915253,302.729797 
	C469.915253,302.729797 469.893036,302.865845 470.181335,302.855225 
	C471.298950,301.871704 472.128296,300.898865 472.957642,299.926025 
	C472.957611,299.925995 472.975067,299.992554 473.245636,299.889648 
	C473.912720,299.344177 474.309265,298.901550 474.705811,298.458923 
	C474.705811,298.458954 474.731079,298.723938 474.896027,298.619812 
	C475.252258,298.164185 475.443573,297.812653 475.634888,297.461121 
	C475.634857,297.461121 475.571655,297.543823 475.893311,297.585876 
	C476.784424,297.041412 477.353882,296.454956 477.923309,295.868469 
	C477.923309,295.868469 477.939850,295.947479 478.240875,295.915955 
	C479.339508,295.192444 480.137146,294.500458 480.934753,293.808502 
	C480.934753,293.808502 480.932617,293.902374 481.252625,293.925232 
	C482.687531,293.214722 483.802460,292.481415 484.917389,291.748077 
	C484.917389,291.748077 484.926025,291.915497 485.084656,291.809631 
	C485.490570,291.463989 485.737885,291.224274 485.987823,290.516846 
	C485.993317,282.938965 486.093689,275.826996 485.960236,268.719391 
	C485.886963,264.816559 485.419739,260.921082 485.130157,257.022308 
	C486.061127,249.158676 489.354950,242.525131 495.840759,237.300995 
	C496.628601,237.264389 496.782440,237.052795 496.754944,236.649658 
	C496.754944,236.649658 496.775940,236.753113 497.092957,236.779114 
	C499.270294,235.582489 501.130646,234.359863 502.990997,233.137238 
	C502.990997,233.137222 503.393463,232.983337 503.897949,232.735931 
	C506.586365,228.608475 506.533905,224.784988 504.112305,221.021469 
	C504.061462,219.614944 504.010620,218.208435 504.278687,216.060974 
	C505.058624,205.066132 505.584015,194.814148 505.891846,184.555664 
	C505.926758,183.392883 504.736908,182.193344 504.114960,181.010834 
	C504.063934,180.253433 504.012909,179.496033 504.441895,178.304810 
	C509.899933,177.608429 514.877930,177.345871 519.902222,177.544708 
	C519.975159,194.465363 519.959595,210.924927 520.087280,227.383392 
	C520.101685,229.233078 520.927063,231.076492 521.376343,232.922821 
	C529.497498,234.042053 533.468384,240.168869 537.009766,246.431778 
	C538.869446,249.720673 539.667664,253.609802 540.653137,257.957520 
	C540.239258,265.835632 539.995544,272.984894 540.043884,280.132202 
	C540.070557,284.063141 540.588745,287.990784 540.885315,291.919891 
	C550.936157,297.533264 560.467834,303.901031 565.680908,314.590607 
	C568.722412,320.827209 570.630615,327.616455 572.773682,334.873413 
	C572.376892,350.170807 572.176270,364.752075 572.219604,379.332611 
	C572.226013,381.482666 572.700989,384.234192 576.151978,383.895142 
	C576.151978,383.895142 576.036438,383.919891 576.219238,384.122437 
	C576.998535,384.508636 577.594971,384.692291 578.191406,384.875946 
	C578.191406,384.875946 578.092163,384.891388 578.156494,384.993652 
	C578.220764,385.095886 578.573608,385.332977 578.573608,385.332977 
	C578.573608,385.332977 578.982971,385.105835 578.982971,385.105835 
M531.531677,306.806000 
	C530.653259,306.555878 529.774902,306.305756 528.960876,306.025238 
	C528.960876,306.025238 528.968750,306.095978 528.642212,305.433441 
	C527.033569,304.998016 525.424866,304.562592 523.954956,304.099274 
	C523.954956,304.099274 523.971985,304.239746 523.497437,303.615173 
	C517.350464,303.233734 511.203644,302.612488 505.056396,302.607758 
	C503.046722,302.606232 501.035828,304.208557 499.027496,305.009338 
	C499.027496,305.009338 499.085236,305.045349 498.325684,305.047821 
	C496.901886,305.754547 495.478058,306.461243 494.064056,307.072144 
	C494.064056,307.072144 494.158356,307.091705 493.527039,307.144348 
	C493.036377,307.492096 492.545685,307.839813 491.769653,308.704773 
	C490.909912,309.155365 490.050201,309.605957 488.742249,310.263306 
	C488.429901,310.400269 488.187561,310.615936 487.432617,311.256134 
	C479.925110,317.364197 474.702148,325.077118 470.806946,334.580841 
	C470.580872,335.763550 470.354797,336.946259 470.065918,338.051392 
	C470.065918,338.051392 470.147919,337.994446 469.608582,338.632080 
	C469.408936,345.019775 469.054871,351.407684 469.062927,357.795135 
	C469.068451,362.177307 469.577362,366.558838 470.035126,371.613068 
	C470.099792,372.261627 470.164429,372.910187 470.237976,373.647705 
	C471.371674,372.752960 472.291840,371.820007 473.387360,371.193878 
	C485.267181,364.404114 497.105560,357.534454 509.150177,351.048584 
	C510.916565,350.097412 514.107422,350.257263 515.945618,351.223022 
	C527.784729,357.443390 539.411682,364.066498 551.164307,370.454193 
	C552.664246,371.269440 554.489563,371.485962 556.880188,371.688721 
	C557.235352,370.982910 557.893311,370.279663 557.899414,369.570862 
	C557.969177,361.456085 558.277527,353.320068 557.787781,345.234161 
	C557.559021,341.458038 555.734619,337.778534 554.827271,334.083923 
	C554.827271,334.083923 554.779480,334.273956 554.909546,333.462372 
	C554.211731,331.821106 553.513916,330.179840 552.147766,328.540894 
	C548.397461,323.481079 544.647156,318.421295 540.680542,312.704132 
	C539.748718,312.156952 538.816956,311.609772 537.956726,311.037384 
	C537.956726,311.037384 537.942383,311.111908 537.808716,310.406921 
	C536.803345,309.959778 535.797913,309.512634 534.345642,309.013275 
	C534.345642,309.013275 533.976624,308.755829 533.773010,308.160065 
	C533.069702,307.868195 532.366455,307.576324 531.857422,307.232574 
	C531.857422,307.232574 531.882080,307.432190 531.531677,306.806000 
M501.487122,258.653046 
	C501.337769,266.824982 501.118042,274.997070 501.136566,283.168640 
	C501.138672,284.092865 502.483276,285.014069 503.907990,285.748596 
	C509.262756,285.968445 514.616455,286.269501 519.973206,286.338043 
	C521.015625,286.351379 522.069519,285.460419 523.845093,284.707886 
	C524.123535,278.029907 524.588379,271.351837 524.583984,264.674042 
	C524.582397,262.181122 523.485718,259.688934 522.298523,256.799866 
	C521.121033,253.406967 519.538940,250.469696 515.436768,249.953125 
	C510.184631,249.291763 506.036530,250.818085 502.901276,256.144623 
	C502.602692,256.765076 502.304108,257.385529 501.487122,258.653046 
z"/>
<path fill="#DFA859" opacity="1.000000" stroke="none" 
	d="
M518.341064,398.893311 
	C518.847717,398.995941 519.354431,399.098572 519.927612,399.930237 
	C520.008301,440.436310 520.024414,480.213409 520.035583,519.990479 
	C520.039307,533.138550 519.938660,546.287720 520.088745,559.434021 
	C520.128174,562.888794 519.034363,564.298889 515.516235,564.029785 
	C512.371155,563.789185 509.196808,563.931885 506.025665,563.442749 
	C506.011383,510.917755 505.958405,458.855225 506.127716,406.793427 
	C506.137451,403.799805 507.958527,400.812042 508.936646,397.821533 
	C508.936615,397.821533 508.938690,397.931244 509.329407,397.941772 
	C512.593811,398.265991 515.467407,398.579651 518.341064,398.893311 
z"/>
<path fill="#DFA859" opacity="1.000000" stroke="none" 
	d="
M455.965698,425.873138 
	C456.783447,425.280182 457.601196,424.687195 458.940704,424.273865 
	C462.263519,423.298767 465.064575,422.143982 468.627502,420.675110 
	C468.784454,423.502533 468.998810,425.574188 468.999725,427.645905 
	C469.018616,469.397491 469.011536,511.149109 469.013214,552.900696 
	C469.013702,564.397156 466.871735,566.208130 455.560577,563.850525 
	C454.545105,563.638855 453.829010,561.990784 453.231659,560.683594 
	C453.656036,558.721802 453.966980,557.086243 453.968048,555.450439 
	C453.994202,515.409485 453.988190,475.368500 453.984772,435.327545 
	C453.984528,432.519318 453.959473,429.711090 453.945984,426.902863 
	C453.945984,426.902863 453.959137,426.982391 454.231354,426.924377 
	C454.990936,426.535278 455.478333,426.204224 455.965698,425.873138 
z"/>
<path fill="#DFA859" opacity="1.000000" stroke="none" 
	d="
M572.034241,564.109680 
	C567.656494,564.397583 563.278687,564.685486 558.444092,564.440735 
	C557.989136,519.292603 557.990601,474.677094 557.995361,430.061615 
	C557.995544,428.563782 557.728516,426.973541 558.150513,425.599701 
	C558.446045,424.637329 559.680054,423.309631 560.535461,423.279022 
	C566.010498,423.083282 572.000244,429.231567 572.001648,434.758301 
	C572.012939,477.875427 572.023499,520.992554 572.034241,564.109680 
z"/>
<path fill="#F0B85E" opacity="1.000000" stroke="none" 
	d="
M572.463013,564.040161 
	C572.023499,520.992554 572.012939,477.875427 572.001648,434.758301 
	C572.000244,429.231567 566.010498,423.083282 560.535461,423.279022 
	C559.680054,423.309631 558.446045,424.637329 558.150513,425.599701 
	C557.728516,426.973541 557.995544,428.563782 557.995361,430.061615 
	C557.990601,474.677094 557.989136,519.292603 557.985596,564.365356 
	C557.320984,563.709167 556.115234,562.610291 556.084534,561.479614 
	C555.903809,554.822449 555.997437,548.157776 555.997498,541.495667 
	C555.997681,500.862366 555.997620,460.229095 555.997620,418.838348 
	C561.838562,421.746552 567.370911,424.267273 572.603821,427.304108 
	C573.648621,427.910522 573.920593,430.486786 573.923767,432.155914 
	C573.989990,466.965393 573.965088,501.774994 573.960388,536.584595 
	C573.959412,544.246033 574.023010,551.908203 573.921875,559.568237 
	C573.902466,561.039978 573.251465,562.503357 572.463013,564.040161 
z"/>
<path fill="#F0B85E" opacity="1.000000" stroke="none" 
	d="
M508.557861,397.898743 
	C507.958527,400.812042 506.137451,403.799805 506.127716,406.793427 
	C505.958405,458.855225 506.011383,510.917755 505.716095,563.467773 
	C505.003235,563.974365 504.590240,563.993286 504.177246,564.012207 
	C504.127655,531.366089 504.068573,498.719971 504.031891,466.073853 
	C504.008850,445.584473 504.103546,425.094299 503.933105,404.606262 
	C503.904236,401.137939 504.635010,398.831543 508.557861,397.898743 
z"/>
<path fill="#FBDD75" opacity="1.000000" stroke="none" 
	d="
M414.600739,403.176514 
	C415.003204,454.990845 415.021484,506.955231 414.898987,558.919250 
	C414.889832,562.803223 415.979523,564.197021 419.983429,564.067871 
	C431.761475,563.687805 429.962189,565.418579 429.980347,553.908875 
	C430.050537,509.439301 430.001129,464.969513 430.039154,420.499847 
	C430.040802,418.549835 430.464386,416.600220 430.989685,414.366425 
	C431.190430,416.071167 431.008423,418.059906 431.007751,420.048676 
	C430.992035,466.684967 430.995941,513.321228 430.996216,559.957520 
	C430.996216,561.438354 430.996246,562.919189 430.996246,564.704468 
	C425.273560,564.704468 419.734131,564.704468 413.876709,564.704468 
	C413.876709,563.432617 413.876862,562.307068 413.876709,561.181458 
	C413.868561,509.881592 413.857910,458.581757 413.866028,407.281891 
	C413.866241,405.963409 414.071808,404.644928 414.600739,403.176514 
z"/>
<path fill="#F0B85E" opacity="1.000000" stroke="none" 
	d="
M610.979919,563.940186 
	C610.989929,512.752380 610.995239,461.564575 611.025330,410.376770 
	C611.026672,408.059875 611.251160,405.743073 611.571289,402.949524 
	C612.180725,403.966858 612.947327,405.460510 612.948914,406.954987 
	C613.003113,458.996704 612.985291,511.038483 612.597412,563.536499 
	C611.804810,563.975220 611.392334,563.957703 610.979919,563.940186 
z"/>
<path fill="#F3BD62" opacity="1.000000" stroke="none" 
	d="
M453.558777,427.051300 
	C453.959473,429.711090 453.984528,432.519318 453.984772,435.327545 
	C453.988190,475.368500 453.994202,515.409485 453.968048,555.450439 
	C453.966980,557.086243 453.656036,558.721802 453.032684,560.693604 
	C452.575928,561.029663 452.177032,561.040100 452.177032,561.040100 
	C452.113098,536.418945 452.031494,511.797791 451.991028,487.176575 
	C451.960968,468.873291 451.953156,450.569824 452.035492,432.266907 
	C452.043091,430.576172 452.775635,428.888702 453.558777,427.051300 
z"/>
<path fill="#FBDD75" opacity="1.000000" stroke="none" 
	d="
M452.111267,561.478027 
	C452.177032,561.040100 452.575928,561.029663 452.774902,561.019714 
	C453.829010,561.990784 454.545105,563.638855 455.560577,563.850525 
	C466.871735,566.208130 469.013702,564.397156 469.013214,552.900696 
	C469.011536,511.149109 469.018616,469.397491 468.999725,427.645905 
	C468.998810,425.574188 468.784454,423.502533 468.627502,420.675110 
	C465.064575,422.143982 462.263519,423.298767 459.247589,424.242432 
	C462.488861,422.195587 465.945038,420.359894 469.822083,418.300690 
	C469.822083,467.563477 469.822083,516.043762 469.822083,565.002014 
	C464.566864,565.002014 459.458801,565.139465 454.373138,564.863708 
	C453.546417,564.818970 452.818909,562.944641 452.111267,561.478027 
z"/>
<path fill="#FBDD75" opacity="1.000000" stroke="none" 
	d="
M504.304474,564.426453 
	C504.590240,563.993286 505.003235,563.974365 505.725800,563.930420 
	C509.196808,563.931885 512.371155,563.789185 515.516235,564.029785 
	C519.034363,564.298889 520.128174,562.888794 520.088745,559.434021 
	C519.938660,546.287720 520.039307,533.138550 520.035583,519.990479 
	C520.024414,480.213409 520.008301,440.436310 520.035156,400.171753 
	C520.425049,400.882080 521.077881,402.079620 521.078918,403.277771 
	C521.125488,456.772369 521.115417,510.266968 521.098022,563.761597 
	C521.097961,564.044617 520.900757,564.327637 520.710144,564.840698 
	C515.343140,564.840698 509.887421,564.840698 504.304474,564.426453 
z"/>
<path fill="#FBDD75" opacity="1.000000" stroke="none" 
	d="
M610.515259,563.965576 
	C611.392334,563.957703 611.804810,563.975220 612.526550,564.000977 
	C607.085388,564.490723 601.334900,564.972290 595.028320,565.500366 
	C595.028320,515.163208 595.028320,465.574005 595.074097,415.523071 
	C595.409851,417.156281 595.950684,419.250977 595.953064,421.346252 
	C596.003967,466.567230 595.994324,511.788208 595.997498,557.009216 
	C595.997986,563.989014 596.000366,563.990967 603.067932,564.000977 
	C605.395447,564.004272 607.723022,563.994629 610.515259,563.965576 
z"/>
<path fill="#F3BD62" opacity="1.000000" stroke="none" 
	d="
M575.936768,383.547791 
	C572.700989,384.234192 572.226013,381.482666 572.219604,379.332611 
	C572.176270,364.752075 572.376892,350.170807 572.778687,335.277466 
	C573.379089,337.197235 573.960266,339.427429 573.976501,341.661682 
	C574.066162,353.976807 573.958496,366.293518 574.092346,378.607819 
	C574.109009,380.144409 575.153442,381.669800 575.936768,383.547791 
z"/>
<path fill="#F3BD62" opacity="1.000000" stroke="none" 
	d="
M452.987427,335.449982 
	C453.404572,336.272675 453.975433,337.527222 453.980652,338.784119 
	C454.034424,351.773895 454.035950,364.764343 453.925903,377.753540 
	C453.914612,379.086121 453.083984,380.411743 452.247803,381.849548 
	C452.200867,366.600006 452.539703,351.241455 452.987427,335.449982 
z"/>
<path fill="#FBDD75" opacity="1.000000" stroke="none" 
	d="
M521.271606,232.470337 
	C520.927063,231.076492 520.101685,229.233078 520.087280,227.383392 
	C519.959595,210.924927 519.975159,194.465363 519.940369,177.309921 
	C519.932190,176.613724 519.985168,176.142563 519.985168,176.142563 
	C520.372803,177.541733 521.090881,178.939301 521.097656,180.340317 
	C521.181091,197.565872 521.160522,214.791931 521.271606,232.470337 
z"/>
<path fill="#F3BD62" opacity="1.000000" stroke="none" 
	d="
M504.057007,181.475784 
	C504.736908,182.193344 505.926758,183.392883 505.891846,184.555664 
	C505.584015,194.814148 505.058624,205.066132 504.355042,215.644516 
	C504.074707,204.626251 504.036896,193.283493 504.057007,181.475784 
z"/>
<path fill="#FBDD75" opacity="1.000000" stroke="none" 
	d="
M540.942017,291.460938 
	C540.588745,287.990784 540.070557,284.063141 540.043884,280.132202 
	C539.995544,272.984894 540.239258,265.835632 540.612427,258.359985 
	C540.908752,269.022522 540.953735,280.012268 540.942017,291.460938 
z"/>
<path fill="#FBDD75" opacity="1.000000" stroke="none" 
	d="
M485.072052,257.487122 
	C485.419739,260.921082 485.886963,264.816559 485.960236,268.719391 
	C486.093689,275.826996 485.993317,282.938965 485.771790,290.526978 
	C485.553101,291.004791 485.120331,291.004913 485.120361,291.004913 
	C485.084869,279.987274 485.049408,268.969604 485.072052,257.487122 
z"/>
<path fill="#F3BD62" opacity="1.000000" stroke="none" 
	d="
M519.525513,176.069168 
	C519.985168,176.142563 519.932190,176.613724 519.894043,176.848511 
	C514.877930,177.345871 509.899933,177.608429 504.516724,177.930847 
	C504.866119,177.320053 505.596741,176.104156 506.379456,176.069611 
	C510.601135,175.883316 514.835693,175.990097 519.525513,176.069168 
z"/>
<path fill="#F3BD62" opacity="1.000000" stroke="none" 
	d="
M504.054443,221.477264 
	C506.533905,224.784988 506.586365,228.608475 504.113098,232.724060 
	C503.881378,229.284058 503.938995,225.608551 504.054443,221.477264 
z"/>
<path fill="#F3BD62" opacity="1.000000" stroke="none" 
	d="
M456.550476,323.007935 
	C455.843903,326.450745 454.829315,330.104767 453.481689,333.871460 
	C454.179901,330.395813 455.211182,326.807465 456.550476,323.007935 
z"/>
<path fill="#F0B85E" opacity="1.000000" stroke="none" 
	d="
M518.155701,398.577454 
	C515.467407,398.579651 512.593811,398.265991 509.278076,397.922424 
	C512.027405,394.386627 514.981384,396.757263 518.155701,398.577454 
z"/>
<path fill="#F3BD62" opacity="1.000000" stroke="none" 
	d="
M502.639404,233.115662 
	C501.130646,234.359863 499.270294,235.582489 497.040558,236.772644 
	C498.543396,235.524811 500.415588,234.309433 502.639404,233.115662 
z"/>
<path fill="#F3BD62" opacity="1.000000" stroke="none" 
	d="
M472.638000,299.968689 
	C472.128296,300.898865 471.298950,301.871704 470.115234,302.835571 
	C470.613342,301.888184 471.465851,300.949768 472.638000,299.968689 
z"/>
<path fill="#F3BD62" opacity="1.000000" stroke="none" 
	d="
M458.615601,318.044312 
	C458.410095,319.430847 457.927521,321.037079 457.094360,322.782837 
	C457.275330,321.369598 457.806915,319.816833 458.615601,318.044312 
z"/>
<path fill="#F3BD62" opacity="1.000000" stroke="none" 
	d="
M484.581085,291.824066 
	C483.802460,292.481415 482.687531,293.214722 481.206207,293.918152 
	C481.974792,293.225525 483.109802,292.562805 484.581085,291.824066 
z"/>
<path fill="#F3BD62" opacity="1.000000" stroke="none" 
	d="
M463.614990,309.994507 
	C463.408234,310.799896 462.913330,311.746033 462.094543,312.810364 
	C462.289459,311.997437 462.808167,311.066376 463.614990,309.994507 
z"/>
<path fill="#F3BD62" opacity="1.000000" stroke="none" 
	d="
M480.622131,293.888977 
	C480.137146,294.500458 479.339508,295.192444 478.203369,295.901123 
	C478.679688,295.268372 479.494568,294.618927 480.622131,293.888977 
z"/>
<path fill="#F3BD62" opacity="1.000000" stroke="none" 
	d="
M477.642029,295.948730 
	C477.353882,296.454956 476.784424,297.041412 475.868347,297.540222 
	C476.134705,296.977997 476.747711,296.503479 477.642029,295.948730 
z"/>
<path fill="#F3BD62" opacity="1.000000" stroke="none" 
	d="
M465.662170,306.981140 
	C465.448639,307.782074 464.948364,308.733582 464.133087,309.819031 
	C464.337219,309.012543 464.856323,308.072113 465.662170,306.981140 
z"/>
<path fill="#F0B85E" opacity="1.000000" stroke="none" 
	d="
M611.018066,402.179291 
	C610.665894,402.318939 610.067993,402.305145 609.270752,402.041992 
	C609.638428,401.870392 610.205444,401.948120 611.018066,402.179291 
z"/>
<path fill="#F3BD62" opacity="1.000000" stroke="none" 
	d="
M578.021973,384.604736 
	C577.594971,384.692291 576.998535,384.508636 576.211243,384.063904 
	C576.631104,383.979736 577.241882,384.156647 578.021973,384.604736 
z"/>
<path fill="#F3BD62" opacity="1.000000" stroke="none" 
	d="
M474.437225,298.590332 
	C474.309265,298.901550 473.912720,299.344177 473.212830,299.879211 
	C473.329224,299.554993 473.748932,299.138336 474.437225,298.590332 
z"/>
<path fill="#F3BD62" opacity="1.000000" stroke="none" 
	d="
M455.658661,425.899353 
	C455.478333,426.204224 454.990936,426.535278 454.195984,426.905029 
	C454.376129,426.604370 454.863861,426.264984 455.658661,425.899353 
z"/>
<path fill="#F3BD62" opacity="1.000000" stroke="none" 
	d="
M459.631897,316.005219 
	C459.713104,316.429504 459.520264,317.014557 459.066925,317.782104 
	C458.990234,317.365021 459.174042,316.765503 459.631897,316.005219 
z"/>
<path fill="#F3BD62" opacity="1.000000" stroke="none" 
	d="
M461.598358,312.952454 
	C461.610138,313.379547 461.348694,313.949127 460.765503,314.621582 
	C460.737518,314.181274 461.031342,313.638123 461.598358,312.952454 
z"/>
<path fill="#F3BD62" opacity="1.000000" stroke="none" 
	d="
M467.669098,304.854309 
	C467.710449,305.043762 467.477081,305.343597 466.997131,305.788849 
	C466.965149,305.611084 467.179779,305.287872 467.669098,304.854309 
z"/>
<path fill="#F3BD62" opacity="1.000000" stroke="none" 
	d="
M496.545166,236.723633 
	C496.782440,237.052795 496.628601,237.264389 496.160431,237.201508 
	C496.027405,237.118591 496.335419,236.797623 496.545166,236.723633 
z"/>
<path fill="#F3BD62" opacity="1.000000" stroke="none" 
	d="
M485.012878,291.225098 
	C485.120331,291.004913 485.553101,291.004791 485.769135,290.994659 
	C485.737885,291.224274 485.490570,291.463989 485.000854,291.808228 
	C484.758423,291.912720 484.905396,291.445251 485.012878,291.225098 
z"/>
<path fill="#F3BD62" opacity="1.000000" stroke="none" 
	d="
M475.371521,297.597290 
	C475.443573,297.812653 475.252258,298.164185 474.763123,298.612793 
	C474.679565,298.384399 474.893890,298.058899 475.371521,297.597290 
z"/>
<path fill="#F3BD62" opacity="1.000000" stroke="none" 
	d="
M578.767456,385.005981 
	C578.982971,385.105835 578.573608,385.332977 578.573608,385.332977 
	C578.573608,385.332977 578.220764,385.095886 578.156006,384.943420 
	C578.091187,384.790924 578.552002,384.906097 578.767456,385.005981 
z"/>
<path fill="#F3BD62" opacity="1.000000" stroke="none" 
	d="
M469.639893,302.840088 
	C469.689117,303.035889 469.462982,303.341980 468.982056,303.785797 
	C468.939697,303.599152 469.152100,303.274750 469.639893,302.840088 
z"/>
<path fill="#F3BD62" opacity="1.000000" stroke="none" 
	d="
M468.648438,303.847107 
	C468.694733,304.037537 468.466766,304.342499 467.989319,304.793854 
	C467.951294,304.614014 468.162750,304.287811 468.648438,303.847107 
z"/>
<path fill="#F3BD62" opacity="1.000000" stroke="none" 
	d="
M460.451935,314.708984 
	C460.559784,314.905823 460.419312,315.259247 460.051086,315.790924 
	C459.950104,315.601288 460.076843,315.233398 460.451935,314.708984 
z"/>
<path fill="#010100" opacity="1.000000" stroke="none" 
	d="
M540.896851,313.361481 
	C544.647156,318.421295 548.397461,323.481079 552.506897,328.960144 
	C553.503845,331.010895 554.141663,332.642426 554.779480,334.273956 
	C554.779480,334.273956 554.827271,334.083923 554.820557,334.501801 
	C555.211182,339.991058 555.799011,345.056396 555.960449,350.135254 
	C556.191589,357.411621 556.111389,364.697815 556.164185,371.979828 
	C554.489563,371.485962 552.664246,371.269440 551.164307,370.454193 
	C539.411682,364.066498 527.784729,357.443390 515.945618,351.223022 
	C514.107422,350.257263 510.916565,350.097412 509.150177,351.048584 
	C497.105560,357.534454 485.267181,364.404114 473.387360,371.193878 
	C472.291840,371.820007 471.371674,372.752960 470.237976,373.647705 
	C470.164429,372.910187 470.099792,372.261627 470.001709,370.815399 
	C470.028198,359.343292 470.088074,348.668884 470.147949,337.994446 
	C470.147919,337.994446 470.065918,338.051392 470.441101,337.931152 
	C471.001343,336.580414 471.186432,335.349915 471.371521,334.119385 
	C474.702148,325.077118 479.925110,317.364197 487.995483,311.085999 
	C488.769104,310.629425 488.979797,310.342987 489.190491,310.056580 
	C490.050201,309.605957 490.909912,309.155365 492.217896,308.388733 
	C493.163544,307.745728 493.660950,307.418732 494.158386,307.091736 
	C494.158356,307.091705 494.064056,307.072144 494.408569,307.068970 
	C496.197113,306.392303 497.641174,305.718842 499.085236,305.045349 
	C499.085236,305.045349 499.027496,305.009338 499.440125,305.019836 
	C507.815796,302.427002 515.882935,302.999298 523.971985,304.239746 
	C523.971985,304.239746 523.954956,304.099274 524.084595,304.416077 
	C525.799133,305.187286 527.383911,305.641632 528.968750,306.095978 
	C528.968750,306.095978 528.960876,306.025238 529.154480,306.287231 
	C530.192749,306.843536 531.037415,307.137878 531.882080,307.432190 
	C531.882080,307.432190 531.857422,307.232574 531.922729,307.490723 
	C532.650879,308.084503 533.313782,308.420166 533.976624,308.755829 
	C533.976624,308.755829 534.345642,309.013275 534.720581,309.325378 
	C536.044495,310.128967 536.993469,310.620422 537.942383,311.111908 
	C537.942383,311.111908 537.956726,311.037384 538.076660,311.332428 
	C539.096619,312.205475 539.996765,312.783478 540.896851,313.361481 
z"/>
<path fill="#010100" opacity="1.000000" stroke="none" 
	d="
M503.450439,255.678070 
	C506.036530,250.818085 510.184631,249.291763 515.436768,249.953125 
	C519.538940,250.469696 521.121033,253.406967 522.621094,257.453491 
	C523.001770,267.066956 523.059937,276.026794 523.118164,284.986603 
	C522.069519,285.460419 521.015625,286.351379 519.973206,286.338043 
	C514.616455,286.269501 509.262756,285.968445 503.452393,285.440918 
	C502.924225,283.753906 502.851685,282.374573 502.871948,280.575684 
	C502.905212,278.442963 502.845612,276.729858 502.851288,274.590393 
	C502.873627,272.441864 502.830719,270.719696 502.875610,268.629822 
	C502.905640,267.513092 502.847839,266.764008 502.855133,265.580139 
	C502.873413,263.098663 502.826630,261.052063 502.847534,258.750610 
	C502.880890,258.323364 502.846527,258.151001 502.937683,257.603119 
	C503.192291,256.711121 503.321381,256.194580 503.450439,255.678070 
z"/>
<path fill="#F3BD62" opacity="1.000000" stroke="none" 
	d="
M556.522156,371.834290 
	C556.111389,364.697815 556.191589,357.411621 555.960449,350.135254 
	C555.799011,345.056396 555.211182,339.991058 554.723633,334.487457 
	C555.734619,337.778534 557.559021,341.458038 557.787781,345.234161 
	C558.277527,353.320068 557.969177,361.456085 557.899414,369.570862 
	C557.893311,370.279663 557.235352,370.982910 556.522156,371.834290 
z"/>
<path fill="#F3BD62" opacity="1.000000" stroke="none" 
	d="
M523.481567,284.847229 
	C523.059937,276.026794 523.001770,267.066956 522.916016,257.651794 
	C523.485718,259.688934 524.582397,262.181122 524.583984,264.674042 
	C524.588379,271.351837 524.123535,278.029907 523.481567,284.847229 
z"/>
<path fill="#F3BD62" opacity="1.000000" stroke="none" 
	d="
M502.779816,259.005432 
	C502.826630,261.052063 502.873413,263.098663 502.674896,265.794800 
	C502.548981,267.295349 502.668396,268.146454 502.787781,268.997528 
	C502.830719,270.719696 502.873627,272.441864 502.654602,274.880341 
	C502.521515,277.396179 502.650330,279.195740 502.779114,280.995270 
	C502.851685,282.374573 502.924225,283.753906 503.101044,285.534943 
	C502.483276,285.014069 501.138672,284.092865 501.136566,283.168640 
	C501.118042,274.997070 501.337769,266.824982 501.743164,258.326172 
	C501.999237,257.999329 501.992706,257.994629 502.084930,258.191650 
	C502.324097,258.647034 502.524963,258.852600 502.779816,259.005432 
z"/>
<path fill="#F3BD62" opacity="1.000000" stroke="none" 
	d="
M523.734741,303.927460 
	C515.882935,302.999298 507.815796,302.427002 499.439087,305.053833 
	C501.035828,304.208557 503.046722,302.606232 505.056396,302.607758 
	C511.203644,302.612488 517.350464,303.233734 523.734741,303.927460 
z"/>
<path fill="#FBDD75" opacity="1.000000" stroke="none" 
	d="
M469.878265,338.313263 
	C470.088074,348.668884 470.028198,359.343292 469.914795,370.479187 
	C469.577362,366.558838 469.068451,362.177307 469.062927,357.795135 
	C469.054871,351.407684 469.408936,345.019775 469.878265,338.313263 
z"/>
<path fill="#F3BD62" opacity="1.000000" stroke="none" 
	d="
M498.705444,305.046570 
	C497.641174,305.718842 496.197113,306.392303 494.403625,307.116852 
	C495.478058,306.461243 496.901886,305.754547 498.705444,305.046570 
z"/>
<path fill="#F3BD62" opacity="1.000000" stroke="none" 
	d="
M528.805481,305.764709 
	C527.383911,305.641632 525.799133,305.187286 524.015259,304.430054 
	C525.424866,304.562592 527.033569,304.998016 528.805481,305.764709 
z"/>
<path fill="#F3BD62" opacity="1.000000" stroke="none" 
	d="
M554.844482,333.868164 
	C554.141663,332.642426 553.503845,331.010895 552.841064,328.958954 
	C553.513916,330.179840 554.211731,331.821106 554.844482,333.868164 
z"/>
<path fill="#F3BD62" opacity="1.000000" stroke="none" 
	d="
M537.875549,310.759399 
	C536.993469,310.620422 536.044495,310.128967 534.944092,309.351501 
	C535.797913,309.512634 536.803345,309.959778 537.875549,310.759399 
z"/>
<path fill="#F3BD62" opacity="1.000000" stroke="none" 
	d="
M540.788696,313.032806 
	C539.996765,312.783478 539.096619,312.205475 538.040833,311.345032 
	C538.816956,311.609772 539.748718,312.156952 540.788696,313.032806 
z"/>
<path fill="#FBDD75" opacity="1.000000" stroke="none" 
	d="
M471.089233,334.350098 
	C471.186432,335.349915 471.001343,336.580414 470.472473,337.969971 
	C470.354797,336.946259 470.580872,335.763550 471.089233,334.350098 
z"/>
<path fill="#F3BD62" opacity="1.000000" stroke="none" 
	d="
M533.874817,308.457947 
	C533.313782,308.420166 532.650879,308.084503 531.825562,307.516663 
	C532.366455,307.576324 533.069702,307.868195 533.874817,308.457947 
z"/>
<path fill="#F3BD62" opacity="1.000000" stroke="none" 
	d="
M531.706909,307.119080 
	C531.037415,307.137878 530.192749,306.843536 529.122314,306.302399 
	C529.774902,306.305756 530.653259,306.555878 531.706909,307.119080 
z"/>
<path fill="#F3BD62" opacity="1.000000" stroke="none" 
	d="
M493.842712,307.118042 
	C493.660950,307.418732 493.163544,307.745728 492.360596,308.130127 
	C492.545685,307.839813 493.036377,307.492096 493.842712,307.118042 
z"/>
<path fill="#F3BD62" opacity="1.000000" stroke="none" 
	d="
M503.175842,255.911346 
	C503.321381,256.194580 503.192291,256.711121 502.732788,257.604675 
	C502.402344,257.981750 501.992706,257.994629 501.992706,257.994629 
	C501.992706,257.994629 501.999237,257.999329 502.002380,258.002625 
	C502.304108,257.385529 502.602692,256.765076 503.175842,255.911346 
z"/>
<path fill="#F3BD62" opacity="1.000000" stroke="none" 
	d="
M488.966370,310.159943 
	C488.979797,310.342987 488.769104,310.629425 488.286804,310.913055 
	C488.187561,310.615936 488.429901,310.400269 488.966370,310.159943 
z"/>
<path fill="#DFA859" opacity="1.000000" stroke="none" 
	d="
M502.871979,280.575684 
	C502.650330,279.195740 502.521515,277.396179 502.589355,275.306702 
	C502.845612,276.729858 502.905212,278.442963 502.871979,280.575684 
z"/>
<path fill="#DFA859" opacity="1.000000" stroke="none" 
	d="
M502.875610,268.629822 
	C502.668396,268.146454 502.548981,267.295349 502.609802,266.229614 
	C502.847839,266.764008 502.905640,267.513092 502.875610,268.629822 
z"/>
<path fill="#DFA859" opacity="1.000000" stroke="none" 
	d="
M502.084930,258.191650 
	C501.992706,257.994629 502.402344,257.981750 502.607239,257.980164 
	C502.846527,258.151001 502.880890,258.323364 502.847534,258.750610 
	C502.524963,258.852600 502.324097,258.647034 502.084930,258.191650 
z"/>
</svg>