<svg version="1.1" id="Layer_1" xmlns="http://www.w3.org/2000/svg" xmlns:xlink="http://www.w3.org/1999/xlink" x="0px" y="0px"
	 width="100%" viewBox="0 0 484 477" enable-background="new 0 0 484 477" xml:space="preserve">
<path fill="#0C63BD" opacity="1.000000" stroke="none" 
	d="
M1.000000,477.000000 
	C1.000000,318.404144 1.000000,159.808319 1.000000,1.000000 
	C161.690689,1.000000 322.381470,1.000000 483.536926,1.468657 
	C484.001923,157.866348 484.002319,313.795380 484.001831,469.724426 
	C484.001801,476.997498 483.997925,477.001770 476.783508,477.001770 
	C318.188995,477.001831 159.594498,477.000824 1.000000,477.000000 
M332.917450,274.818939 
	C333.099579,280.643463 333.432892,286.467834 333.438446,292.292542 
	C333.467804,322.945709 333.382568,353.598969 333.409973,384.252136 
	C333.417786,392.955566 336.926727,396.459076 345.496765,396.489166 
	C360.490112,396.541779 375.483887,396.539398 390.477264,396.491089 
	C399.077942,396.463409 402.787933,392.848267 402.788147,384.397400 
	C402.789032,348.912842 402.923645,313.426575 402.611725,277.944458 
	C402.456299,260.261749 400.857544,242.673508 394.952545,225.778458 
	C386.256165,200.896912 369.390503,185.312698 343.173401,180.537170 
	C329.763092,178.094421 316.310883,178.267715 302.908234,180.724884 
	C286.671539,183.701645 273.266571,191.393341 263.311615,204.752823 
	C262.771515,205.477646 262.126770,206.124466 260.458710,208.036255 
	C260.458710,202.434830 260.506775,198.357422 260.448792,194.281509 
	C260.326111,185.659286 256.829681,182.136078 248.259247,182.109268 
	C233.932236,182.064453 219.604919,182.075317 205.277832,182.103745 
	C196.230667,182.121689 192.842316,185.464279 192.840256,194.426849 
	C192.825729,257.732880 192.824753,321.038910 192.842133,384.344940 
	C192.844498,392.966431 196.339859,396.461548 204.982101,396.491547 
	C218.809296,396.539520 232.636795,396.514709 246.464157,396.504242 
	C257.159210,396.496094 260.239136,393.477295 260.243835,382.927643 
	C260.258301,350.608246 260.142609,318.288330 260.304596,285.969757 
	C260.368347,273.249908 263.220886,261.117981 270.773651,250.600693 
	C279.034424,239.097458 290.712555,235.641022 304.262634,237.478394 
	C317.146973,239.225494 325.389252,246.776535 329.437744,258.844635 
	C331.065674,263.697266 331.740479,268.869629 332.917450,274.818939 
M162.310684,232.500153 
	C162.310074,220.341873 162.333664,208.183533 162.301407,196.025330 
	C162.274094,185.726456 158.680374,182.065384 148.566360,182.042160 
	C135.075623,182.011185 121.584648,182.003067 108.093979,182.046387 
	C98.521889,182.077118 94.800575,185.815491 94.798439,195.395767 
	C94.784439,258.019775 94.784248,320.643799 94.798447,383.267822 
	C94.800598,392.767639 98.560570,396.465424 108.217636,396.492798 
	C121.208687,396.529633 134.199921,396.509674 147.191071,396.502258 
	C159.078766,396.495453 162.305588,393.281189 162.307281,381.399445 
	C162.314316,332.099701 162.310547,282.799927 162.310684,232.500153 
M99.822388,87.315353 
	C82.341965,103.850914 79.977249,128.627563 94.136108,146.894287 
	C107.913048,164.668289 133.181000,169.032043 152.025528,156.891724 
	C173.033249,143.357849 178.562927,115.403900 164.254364,95.072083 
	C149.509445,74.120255 121.288872,70.492973 99.822388,87.315353 
z"/>
<path fill="#7EAAD7" opacity="1.000000" stroke="none" 
	d="
M1.000000,477.500000 
	C159.594498,477.000824 318.188995,477.001831 476.783508,477.001770 
	C483.997925,477.001770 484.001801,476.997498 484.001831,469.724426 
	C484.002319,313.795380 484.001923,157.866348 484.000824,1.468657 
	C484.333344,2.333333 484.955383,3.666169 484.957672,5.000072 
	C485.012146,36.666645 485.000000,68.333328 485.000000,99.999992 
	C485.000000,225.999985 485.000000,351.999969 485.000000,478.000000 
	C323.666656,478.000000 162.333328,478.000000 1.000000,477.500000 
z"/>
<path fill="#FDFEFE" opacity="1.000000" stroke="none" 
	d="
M332.883240,274.357697 
	C331.740479,268.869629 331.065674,263.697266 329.437744,258.844635 
	C325.389252,246.776535 317.146973,239.225494 304.262634,237.478394 
	C290.712555,235.641022 279.034424,239.097458 270.773651,250.600693 
	C263.220886,261.117981 260.368347,273.249908 260.304596,285.969757 
	C260.142609,318.288330 260.258301,350.608246 260.243835,382.927643 
	C260.239136,393.477295 257.159210,396.496094 246.464157,396.504242 
	C232.636795,396.514709 218.809296,396.539520 204.982101,396.491547 
	C196.339859,396.461548 192.844498,392.966431 192.842133,384.344940 
	C192.824753,321.038910 192.825729,257.732880 192.840256,194.426849 
	C192.842316,185.464279 196.230667,182.121689 205.277832,182.103745 
	C219.604919,182.075317 233.932236,182.064453 248.259247,182.109268 
	C256.829681,182.136078 260.326111,185.659286 260.448792,194.281509 
	C260.506775,198.357422 260.458710,202.434830 260.458710,208.036255 
	C262.126770,206.124466 262.771515,205.477646 263.311615,204.752823 
	C273.266571,191.393341 286.671539,183.701645 302.908234,180.724884 
	C316.310883,178.267715 329.763092,178.094421 343.173401,180.537170 
	C369.390503,185.312698 386.256165,200.896912 394.952545,225.778458 
	C400.857544,242.673508 402.456299,260.261749 402.611725,277.944458 
	C402.923645,313.426575 402.789032,348.912842 402.788147,384.397400 
	C402.787933,392.848267 399.077942,396.463409 390.477264,396.491089 
	C375.483887,396.539398 360.490112,396.541779 345.496765,396.489166 
	C336.926727,396.459076 333.417786,392.955566 333.409973,384.252136 
	C333.382568,353.598969 333.467804,322.945709 333.438446,292.292542 
	C333.432892,286.467834 333.099579,280.643463 332.883240,274.357697 
z"/>
<path fill="#FEFEFF" opacity="1.000000" stroke="none" 
	d="
M162.310699,233.000153 
	C162.310547,282.799927 162.314316,332.099701 162.307281,381.399445 
	C162.305588,393.281189 159.078766,396.495453 147.191071,396.502258 
	C134.199921,396.509674 121.208687,396.529633 108.217636,396.492798 
	C98.560570,396.465424 94.800598,392.767639 94.798447,383.267822 
	C94.784248,320.643799 94.784439,258.019775 94.798439,195.395767 
	C94.800575,185.815491 98.521889,182.077118 108.093979,182.046387 
	C121.584648,182.003067 135.075623,182.011185 148.566360,182.042160 
	C158.680374,182.065384 162.274094,185.726456 162.301407,196.025330 
	C162.333664,208.183533 162.310074,220.341873 162.310699,233.000153 
z"/>
<path fill="#FDFDFE" opacity="1.000000" stroke="none" 
	d="
M100.097633,87.088272 
	C121.288872,70.492973 149.509445,74.120255 164.254364,95.072083 
	C178.562927,115.403900 173.033249,143.357849 152.025528,156.891724 
	C133.181000,169.032043 107.913048,164.668289 94.136108,146.894287 
	C79.977249,128.627563 82.341965,103.850914 100.097633,87.088272 
z"/>
</svg>