<svg version="1.1" id="Layer_1" xmlns="http://www.w3.org/2000/svg" xmlns:xlink="http://www.w3.org/1999/xlink" x="0px" y="0px"
	 width="100%" viewBox="0 0 677 603" enable-background="new 0 0 677 603" xml:space="preserve">
<path fill="#000000" opacity="1.000000" stroke="none" 
	d="
M313.000000,604.000000 
	C208.666687,604.000000 104.833374,604.000000 1.000042,604.000000 
	C1.000028,403.000061 1.000028,202.000107 1.000014,1.000123 
	C226.666565,1.000082 452.333130,1.000082 677.999756,1.000041 
	C677.999878,201.999878 677.999878,402.999756 677.999939,603.999817 
	C556.500000,604.000000 435.000000,604.000000 313.000000,604.000000 
M259.987732,329.000702 
	C259.875122,328.866333 259.762512,328.731934 259.000793,328.742401 
	C257.534119,329.645142 256.067444,330.547913 254.543640,331.465759 
	C254.543640,331.465759 254.522293,331.520874 253.846664,331.731232 
	C250.239578,333.825317 246.632492,335.919373 243.000717,337.996765 
	C243.000717,337.996765 243.011536,338.023804 242.270706,338.287018 
	C241.524445,340.242310 240.132294,342.195770 240.126831,344.153137 
	C240.004837,387.749542 240.034882,431.346436 240.038437,474.943207 
	C240.039047,482.431213 239.966660,489.921173 240.143723,497.405151 
	C240.171539,498.580444 241.353424,499.728424 242.926620,500.988800 
	C247.291550,500.941437 251.656464,500.894043 256.538422,500.946564 
	C256.695435,500.868073 256.852478,500.789612 257.394684,500.703430 
	C257.394684,500.703430 257.611206,500.386749 257.611206,500.386749 
	C257.611206,500.386749 257.375031,500.084473 257.552887,499.152618 
	C257.563324,451.581360 257.567413,404.010132 257.604889,356.438904 
	C257.606598,354.299500 257.910980,352.160339 258.774048,349.903320 
	C271.357635,343.147125 283.956665,336.419495 296.520538,329.626862 
	C309.524811,322.596100 322.439178,315.395142 335.544678,308.559784 
	C337.357147,307.614502 340.489807,307.490295 342.254913,308.420807 
	C368.800598,322.414520 395.219421,336.648956 421.481903,351.659485 
	C421.457489,396.310425 421.426086,440.961365 421.418762,485.612305 
	C421.417969,490.438049 421.556671,495.263794 421.387909,500.385712 
	C421.477234,500.701630 421.677612,500.807068 422.457397,500.935486 
	C422.628723,500.902649 422.800049,500.869812 423.895020,500.981415 
	C428.608887,500.692932 433.322784,500.404449 438.790497,499.852661 
	C439.028534,498.934814 439.474152,498.017120 439.474854,497.099060 
	C439.513580,445.444244 439.526154,393.789429 439.457672,342.134674 
	C439.455933,340.839691 438.885803,338.903015 437.950653,338.368958 
	C434.811401,336.576202 431.386475,335.283752 428.045807,333.942230 
	C428.045807,333.942230 428.188812,333.963593 427.955566,333.370483 
	C427.601440,333.170227 427.247314,332.969971 426.493378,332.253693 
	C417.807373,327.610291 409.121368,322.966888 400.514435,317.356689 
	C400.409821,303.261139 400.305237,289.165588 400.442200,274.302094 
	C397.149963,253.107635 386.412933,237.118011 367.542023,226.043350 
	C367.455597,215.379837 367.369202,204.716339 367.414978,193.259506 
	C366.369720,180.682388 358.904510,173.015533 347.654358,167.962845 
	C347.654358,149.378281 347.654358,130.813644 347.654358,112.109772 
	C341.817566,112.109772 336.377106,112.109772 330.359009,112.109772 
	C330.359009,114.071503 330.358887,115.860870 330.359039,117.650238 
	C330.360443,133.292114 330.440491,148.934937 330.248230,164.574448 
	C330.227814,166.235229 329.036072,168.657150 327.667725,169.400391 
	C318.538147,174.359238 313.243866,181.813156 311.507355,192.946533 
	C311.476013,195.089005 311.453339,197.231644 311.411835,199.373917 
	C311.227112,208.904587 311.036957,218.435150 310.147858,227.996368 
	C291.083221,239.267746 279.761536,255.336716 278.607880,278.686432 
	C278.649139,283.102814 278.690399,287.519226 278.441284,292.775452 
	C278.539001,294.534912 278.636688,296.294342 278.519440,298.820953 
	C278.590881,300.926117 278.662323,303.031250 278.447266,305.975128 
	C278.549988,308.619659 278.652710,311.264221 278.555420,314.631378 
	C278.626160,315.121307 278.696899,315.611267 278.453735,316.688385 
	C273.157562,320.061523 267.861389,323.434662 261.991028,326.913513 
	C261.212250,327.473907 260.433472,328.034302 259.987732,329.000702 
M345.867889,334.931274 
	C342.941101,334.086761 340.700317,330.244446 336.219025,333.056000 
	C331.712189,334.139740 330.318024,336.761688 330.335663,341.562042 
	C330.529572,394.304962 330.443451,447.048889 330.169678,500.176392 
	C330.467743,500.421997 330.765808,500.667633 331.983978,501.005127 
	C336.651276,500.960449 341.318542,500.915771 346.850311,500.964478 
	C347.213104,499.507721 347.891541,498.051270 347.893066,496.594116 
	C347.948364,444.580902 347.952393,392.567627 347.886841,340.554413 
	C347.884735,338.886200 347.079254,337.218994 346.588867,335.351746 
	C346.588867,335.351746 346.380676,335.349213 345.867889,334.931274 
M295.825531,500.943939 
	C296.139130,499.426147 296.724976,497.908722 296.726807,496.390533 
	C296.781860,450.568542 296.781342,404.746460 296.775635,358.924408 
	C296.775482,357.639832 296.623444,356.355255 296.479584,354.079651 
	C291.728363,356.565948 287.668243,359.074341 283.312195,360.861359 
	C279.027832,362.618958 278.082458,365.406982 278.139099,369.771606 
	C278.379059,388.263947 278.242523,406.761200 278.242615,425.256653 
	C278.242737,448.917511 278.208435,472.578491 278.317566,496.238861 
	C278.324768,497.800598 279.423126,499.357269 280.941467,500.993195 
	C285.622528,500.966156 290.303619,500.939117 295.825531,500.943939 
M382.429596,487.486267 
	C382.429596,491.921265 382.429596,496.356262 382.429596,500.659637 
	C388.807434,500.659637 394.543060,500.659637 400.520386,500.659637 
	C400.520386,455.863098 400.538940,411.415497 400.433197,366.968140 
	C400.429932,365.593018 399.496918,363.594849 398.383698,362.955292 
	C393.433563,360.111542 388.259674,357.657257 382.430420,354.686951 
	C382.430420,399.315125 382.430420,442.903229 382.429596,487.486267 
z"/>
<path fill="#DAA557" opacity="1.000000" stroke="none" 
	d="
M421.668060,350.826813 
	C395.219421,336.648956 368.800598,322.414520 342.254913,308.420807 
	C340.489807,307.490295 337.357147,307.614502 335.544678,308.559784 
	C322.439178,315.395142 309.524811,322.596100 296.520538,329.626862 
	C283.956665,336.419495 271.357635,343.147125 258.072937,350.138428 
	C256.911957,352.036560 256.052521,353.699127 256.050385,355.362762 
	C255.988266,403.857330 256.011688,452.351990 256.021393,500.846680 
	C251.656464,500.894043 247.291550,500.941437 242.447052,500.477570 
	C241.961334,448.437073 241.940552,396.907806 241.994095,345.378601 
	C241.996643,342.926666 242.657333,340.475372 243.011536,338.023804 
	C243.011536,338.023804 243.000717,337.996765 243.383057,337.974365 
	C247.351044,335.808258 250.936676,333.664581 254.522293,331.520874 
	C254.522293,331.520874 254.543640,331.465759 254.933258,331.507721 
	C256.765228,330.565643 258.207581,329.581604 259.649902,328.597595 
	C259.762512,328.731934 259.875122,328.866333 260.124786,328.833496 
	C261.029633,328.046814 261.797424,327.427307 262.565186,326.807800 
	C267.861389,323.434662 273.157562,320.061523 278.794800,316.199524 
	C279.009064,315.110016 278.882263,314.509399 278.755463,313.908752 
	C278.652710,311.264221 278.549988,308.619659 278.841766,305.275574 
	C279.068970,302.401978 278.901672,300.227875 278.734375,298.053802 
	C278.636688,296.294342 278.539001,294.534912 278.856171,292.125122 
	C279.228149,286.995514 279.185242,282.516235 279.142334,278.036987 
	C279.761536,255.336716 291.083221,239.267746 310.853790,227.805847 
	C311.822540,227.424438 312.315674,227.232925 312.315186,227.042725 
	C312.284363,215.489777 312.214050,203.936966 312.130432,192.384232 
	C312.129639,192.272812 311.901947,192.163010 311.780182,192.052444 
	C313.243866,181.813156 318.538147,174.359238 327.667725,169.400391 
	C329.036072,168.657150 330.227814,166.235229 330.248230,164.574448 
	C330.440491,148.934937 330.360443,133.292114 330.359039,117.650238 
	C330.358887,115.860870 330.359009,114.071503 330.359009,112.109772 
	C336.377106,112.109772 341.817566,112.109772 347.654358,112.109772 
	C347.654358,130.813644 347.654358,149.378281 347.654358,167.962845 
	C358.904510,173.015533 366.369720,180.682388 367.073090,193.886230 
	C366.595978,204.972504 366.450714,215.431961 366.368835,225.891907 
	C366.366058,226.243881 367.002502,226.600861 367.341003,226.955521 
	C386.412933,237.118011 397.149963,253.107635 400.058533,274.924438 
	C399.459045,276.159210 399.057098,276.770966 399.054901,277.384125 
	C399.011383,289.662903 398.969055,301.942230 399.070068,314.220245 
	C399.081329,315.591614 399.959351,316.955902 400.435394,318.323486 
	C409.121368,322.966888 417.807373,327.610291 426.879028,332.742218 
	C427.572693,333.475037 427.880768,333.719299 428.188812,333.963593 
	C428.188812,333.963593 428.045807,333.942230 428.202148,334.189880 
	C429.859131,335.442017 431.234009,336.811279 432.884796,337.380676 
	C437.353821,338.922302 438.529022,342.043732 437.988251,346.350159 
	C437.574768,349.642639 437.051208,352.955505 437.046722,356.259949 
	C436.985138,401.417297 436.987183,446.574768 437.049805,491.732117 
	C437.053650,494.527161 437.692993,497.321381 438.036652,500.115967 
	C433.322784,500.404449 428.608887,500.692932 423.440186,500.450928 
	C422.991211,452.270905 423.013611,404.621368 422.946320,356.971954 
	C422.943420,354.922974 422.113007,352.875153 421.668060,350.826813 
M344.358490,186.059525 
	C343.902161,186.016541 343.445862,185.973557 342.119354,185.959244 
	C334.196777,185.898743 329.956512,188.289124 329.662903,194.127167 
	C329.208862,203.155716 329.543213,212.223892 329.543213,221.991028 
	C336.012115,221.991028 342.007416,221.991028 348.552673,222.259552 
	C349.303253,221.234192 350.683319,220.221771 350.704712,219.181412 
	C350.875122,210.904648 351.096985,202.605087 350.629822,194.350601 
	C350.437866,190.958374 349.591919,186.860184 344.450806,186.608261 
	C344.450806,186.608261 344.412659,186.450272 344.358490,186.059525 
M297.127808,274.798218 
	C296.880371,275.212219 296.632935,275.626221 295.818420,276.493988 
	C295.625610,286.476471 295.416046,296.458740 295.284973,306.442017 
	C295.277740,306.993896 295.921356,307.554291 296.599365,308.255615 
	C296.761749,308.442749 296.884644,308.652954 297.212128,309.053802 
	C297.212128,309.053802 297.609314,309.072968 297.609314,309.072968 
	C297.609314,309.072968 297.943298,308.791901 298.293823,308.226227 
	C309.826599,301.647278 321.256805,294.875916 332.969330,288.634369 
	C335.659698,287.200714 339.895294,286.274475 342.426331,287.382996 
	C349.998535,290.699402 357.086700,295.124969 364.347748,299.146545 
	C370.091736,302.327942 375.811951,305.552277 382.767151,309.442352 
	C382.767151,298.639618 382.767151,289.361267 383.254608,279.559601 
	C382.863220,278.035095 382.471832,276.510620 381.540466,274.460052 
	C378.548645,258.773804 369.204590,248.250809 354.743073,242.207138 
	C338.982941,235.620789 324.649689,238.197800 311.653961,249.366119 
	C304.883057,255.184937 301.083130,262.778442 297.037354,271.141266 
	C297.079132,272.119324 297.120880,273.097382 297.127808,274.798218 
z"/>
<path fill="#E0A859" opacity="1.000000" stroke="none" 
	d="
M382.429993,486.988800 
	C382.430420,442.903229 382.430420,399.315125 382.430420,354.686951 
	C388.259674,357.657257 393.433563,360.111542 398.383698,362.955292 
	C399.496918,363.594849 400.429932,365.593018 400.433197,366.968140 
	C400.538940,411.415497 400.520386,455.863098 400.520386,500.659637 
	C394.543060,500.659637 388.807434,500.659637 382.429596,500.659637 
	C382.429596,496.356262 382.429596,491.921265 382.429993,486.988800 
z"/>
<path fill="#DFA859" opacity="1.000000" stroke="none" 
	d="
M345.985840,500.871094 
	C341.318542,500.915771 336.651276,500.960449 331.392334,500.664368 
	C330.678192,500.146576 330.555756,499.969543 330.433289,499.792542 
	C330.443451,447.048889 330.529572,394.304962 330.335663,341.562042 
	C330.318024,336.761688 331.712189,334.139740 336.845764,333.105896 
	C340.441864,333.886902 343.411285,334.618042 346.380676,335.349182 
	C346.380676,335.349213 346.588867,335.351746 346.506134,335.941223 
	C346.298004,339.186249 346.065186,341.841644 346.063049,344.497253 
	C346.021271,396.621857 346.006287,448.746490 345.985840,500.871094 
z"/>
<path fill="#DFA759" opacity="1.000000" stroke="none" 
	d="
M294.984680,500.912048 
	C290.303619,500.939117 285.622528,500.966156 280.419617,500.535736 
	C279.867157,494.632874 279.812225,489.187439 279.810150,483.742035 
	C279.800934,459.535858 279.806458,435.329681 279.807495,411.123505 
	C279.808075,397.300598 279.777130,383.477478 279.852966,369.654968 
	C279.862640,367.890839 279.814301,365.258911 280.852905,364.520996 
	C284.927856,361.625824 289.427399,359.328278 294.812561,356.203278 
	C294.987640,359.673157 295.167847,361.598450 295.169342,363.523865 
	C295.188416,388.171967 295.207397,412.820129 295.174286,437.468201 
	C295.145844,458.616180 295.050446,479.764099 294.984680,500.912048 
z"/>
<path fill="#B8934B" opacity="1.000000" stroke="none" 
	d="
M295.405090,500.927979 
	C295.050446,479.764099 295.145844,458.616180 295.174286,437.468201 
	C295.207397,412.820129 295.188416,388.171967 295.169342,363.523865 
	C295.167847,361.598450 294.987640,359.673157 294.812561,356.203278 
	C289.427399,359.328278 284.927856,361.625824 280.852905,364.520996 
	C279.814301,365.258911 279.862640,367.890839 279.852966,369.654968 
	C279.777130,383.477478 279.808075,397.300598 279.807495,411.123505 
	C279.806458,435.329681 279.800934,459.535858 279.810150,483.742035 
	C279.812225,489.187439 279.867157,494.632874 279.955872,500.497314 
	C279.423126,499.357269 278.324768,497.800598 278.317566,496.238861 
	C278.208435,472.578491 278.242737,448.917511 278.242615,425.256653 
	C278.242523,406.761200 278.379059,388.263947 278.139099,369.771606 
	C278.082458,365.406982 279.027832,362.618958 283.312195,360.861359 
	C287.668243,359.074341 291.728363,356.565948 296.479584,354.079651 
	C296.623444,356.355255 296.775482,357.639832 296.775635,358.924408 
	C296.781342,404.746460 296.781860,450.568542 296.726807,496.390533 
	C296.724976,497.908722 296.139130,499.426147 295.405090,500.927979 
z"/>
<path fill="#EBB35E" opacity="1.000000" stroke="none" 
	d="
M438.413574,499.984314 
	C437.692993,497.321381 437.053650,494.527161 437.049805,491.732117 
	C436.987183,446.574768 436.985138,401.417297 437.046722,356.259949 
	C437.051208,352.955505 437.574768,349.642639 437.988251,346.350159 
	C438.529022,342.043732 437.353821,338.922302 432.884796,337.380676 
	C431.234009,336.811279 429.859131,335.442017 428.214661,334.118683 
	C431.386475,335.283752 434.811401,336.576202 437.950653,338.368958 
	C438.885803,338.903015 439.455933,340.839691 439.457672,342.134674 
	C439.526154,393.789429 439.513580,445.444244 439.474854,497.099060 
	C439.474152,498.017120 439.028534,498.934814 438.413574,499.984314 
z"/>
<path fill="#C3A155" opacity="1.000000" stroke="none" 
	d="
M346.418091,500.917786 
	C346.006287,448.746490 346.021271,396.621857 346.063049,344.497253 
	C346.065186,341.841644 346.298004,339.186249 346.535858,336.041016 
	C347.079254,337.218994 347.884735,338.886200 347.886841,340.554413 
	C347.952393,392.567627 347.948364,444.580902 347.893066,496.594116 
	C347.891541,498.051270 347.213104,499.507721 346.418091,500.917786 
z"/>
<path fill="#C3A155" opacity="1.000000" stroke="none" 
	d="
M242.641113,338.155396 
	C242.657333,340.475372 241.996643,342.926666 241.994095,345.378601 
	C241.940552,396.907806 241.961334,448.437073 241.984604,500.427673 
	C241.353424,499.728424 240.171539,498.580444 240.143723,497.405151 
	C239.966660,489.921173 240.039047,482.431213 240.038437,474.943207 
	C240.034882,431.346436 240.004837,387.749542 240.126831,344.153137 
	C240.132294,342.195770 241.524445,340.242310 242.641113,338.155396 
z"/>
<path fill="#ECC066" opacity="1.000000" stroke="none" 
	d="
M256.279907,500.896606 
	C256.011688,452.351990 255.988266,403.857330 256.050385,355.362762 
	C256.052521,353.699127 256.911957,352.036560 257.723083,350.197296 
	C257.910980,352.160339 257.606598,354.299500 257.604889,356.438904 
	C257.567413,404.010132 257.563324,451.581360 257.359253,499.691315 
	C257.061127,500.373383 257.009094,500.533752 257.009491,500.711182 
	C256.852478,500.789612 256.695435,500.868073 256.279907,500.896606 
z"/>
<path fill="#ECC066" opacity="1.000000" stroke="none" 
	d="
M421.574982,351.243164 
	C422.113007,352.875153 422.943420,354.922974 422.946320,356.971954 
	C423.013611,404.621368 422.991211,452.270905 422.978394,500.378693 
	C422.800049,500.869812 422.628723,500.902649 422.206909,500.694122 
	C421.908356,500.277405 421.799744,500.156342 421.630676,500.089539 
	C421.556671,495.263794 421.417969,490.438049 421.418762,485.612305 
	C421.426086,440.961365 421.457489,396.310425 421.574982,351.243164 
z"/>
<path fill="#ECC066" opacity="1.000000" stroke="none" 
	d="
M400.474915,317.840088 
	C399.959351,316.955902 399.081329,315.591614 399.070068,314.220245 
	C398.969055,301.942230 399.011383,289.662903 399.054901,277.384125 
	C399.057098,276.770966 399.459045,276.159210 399.937744,275.308411 
	C400.305237,289.165588 400.409821,303.261139 400.474915,317.840088 
z"/>
<path fill="#ECC066" opacity="1.000000" stroke="none" 
	d="
M311.643768,192.499481 
	C311.901947,192.163010 312.129639,192.272812 312.130432,192.384232 
	C312.214050,203.936966 312.284363,215.489777 312.315186,227.042725 
	C312.315674,227.232925 311.822540,227.424438 311.204224,227.790558 
	C311.036957,218.435150 311.227112,208.904587 311.411835,199.373917 
	C311.453339,197.231644 311.476013,195.089005 311.643768,192.499481 
z"/>
<path fill="#ECC066" opacity="1.000000" stroke="none" 
	d="
M367.441528,226.499435 
	C367.002502,226.600861 366.366058,226.243881 366.368835,225.891907 
	C366.450714,215.431961 366.595978,204.972504 367.007019,194.282898 
	C367.369202,204.716339 367.455597,215.379837 367.441528,226.499435 
z"/>
<path fill="#ECC066" opacity="1.000000" stroke="none" 
	d="
M278.875122,278.361694 
	C279.185242,282.516235 279.228149,286.995514 279.001343,291.705200 
	C278.690399,287.519226 278.649139,283.102814 278.875122,278.361694 
z"/>
<path fill="#C3A155" opacity="1.000000" stroke="none" 
	d="
M254.184479,331.626038 
	C250.936676,333.664581 247.351044,335.808258 243.395416,337.982666 
	C246.632492,335.919373 250.239578,333.825317 254.184479,331.626038 
z"/>
<path fill="#C3A155" opacity="1.000000" stroke="none" 
	d="
M346.124268,335.140228 
	C343.411285,334.618042 340.441864,333.886902 337.223022,333.025909 
	C340.700317,330.244446 342.941101,334.086761 346.124268,335.140228 
z"/>
<path fill="#ECC066" opacity="1.000000" stroke="none" 
	d="
M278.626892,298.437378 
	C278.901672,300.227875 279.068970,302.401978 278.984985,304.856232 
	C278.662323,303.031250 278.590881,300.926117 278.626892,298.437378 
z"/>
<path fill="#C3A155" opacity="1.000000" stroke="none" 
	d="
M259.325378,328.669983 
	C258.207581,329.581604 256.765228,330.565643 254.961823,331.500183 
	C256.067444,330.547913 257.534119,329.645142 259.325378,328.669983 
z"/>
<path fill="#C3A155" opacity="1.000000" stroke="none" 
	d="
M262.278107,326.860657 
	C261.797424,327.427307 261.029633,328.046814 259.958252,328.630524 
	C260.433472,328.034302 261.212250,327.473907 262.278107,326.860657 
z"/>
<path fill="#ECC066" opacity="1.000000" stroke="none" 
	d="
M278.655457,314.270081 
	C278.882263,314.509399 279.009064,315.110016 278.951752,315.905945 
	C278.696899,315.611267 278.626160,315.121307 278.655457,314.270081 
z"/>
<path fill="#EBB35E" opacity="1.000000" stroke="none" 
	d="
M428.072205,333.667053 
	C427.880768,333.719299 427.572693,333.475037 427.078918,333.000244 
	C427.247314,332.969971 427.601440,333.170227 428.072205,333.667053 
z"/>
<path fill="#DAA557" opacity="1.000000" stroke="none" 
	d="
M257.202087,500.707306 
	C257.009094,500.533752 257.061127,500.373383 257.270325,500.157227 
	C257.375031,500.084473 257.611206,500.386749 257.611206,500.386749 
	C257.611206,500.386749 257.394684,500.703430 257.202087,500.707306 
z"/>
<path fill="#75572C" opacity="1.000000" stroke="none" 
	d="
M330.301483,499.984467 
	C330.555756,499.969543 330.678192,500.146576 330.932251,500.618439 
	C330.765808,500.667633 330.467743,500.421997 330.301483,499.984467 
z"/>
<path fill="#DAA557" opacity="1.000000" stroke="none" 
	d="
M421.509277,500.237610 
	C421.799744,500.156342 421.908356,500.277405 421.972778,500.577362 
	C421.677612,500.807068 421.477234,500.701630 421.509277,500.237610 
z"/>
<path fill="#020101" opacity="1.000000" stroke="none" 
	d="
M296.968018,308.886230 
	C296.884644,308.652954 296.761749,308.442749 296.543762,307.760010 
	C296.453949,296.856323 296.419739,286.448303 296.385498,276.040253 
	C296.632935,275.626221 296.880371,275.212219 297.275452,274.022766 
	C297.454895,272.373077 297.486725,271.498810 297.518555,270.624573 
	C301.083130,262.778442 304.883057,255.184937 311.653961,249.366119 
	C324.649689,238.197800 338.982941,235.620789 354.743073,242.207138 
	C369.204590,248.250809 378.548645,258.773804 381.851135,275.090210 
	C382.363556,277.174530 382.565369,278.628723 382.767151,280.082916 
	C382.767151,289.361267 382.767151,298.639618 382.767151,309.442352 
	C375.811951,305.552277 370.091736,302.327942 364.347748,299.146545 
	C357.086700,295.124969 349.998535,290.699402 342.426331,287.382996 
	C339.895294,286.274475 335.659698,287.200714 332.969330,288.634369 
	C321.256805,294.875916 309.826599,301.647278 297.874146,308.526428 
	C297.454498,308.826599 296.968018,308.886230 296.968018,308.886230 
z"/>
<path fill="#060402" opacity="1.000000" stroke="none" 
	d="
M348.002747,221.991028 
	C342.007416,221.991028 336.012115,221.991028 329.543213,221.991028 
	C329.543213,212.223892 329.208862,203.155716 329.662903,194.127167 
	C329.956512,188.289124 334.196777,185.898743 342.783386,186.053879 
	C343.769165,186.249100 344.090912,186.349686 344.412659,186.450272 
	C344.412659,186.450272 344.450806,186.608261 344.742249,186.881256 
	C346.440063,190.523026 348.727600,193.806305 349.064545,197.278870 
	C349.714478,203.977127 349.336609,210.783707 349.209808,217.542084 
	C349.181854,219.032089 348.424316,220.508408 348.002747,221.991028 
z"/>
<path fill="#B8934B" opacity="1.000000" stroke="none" 
	d="
M348.277710,222.125290 
	C348.424316,220.508408 349.181854,219.032089 349.209808,217.542084 
	C349.336609,210.783707 349.714478,203.977127 349.064545,197.278870 
	C348.727600,193.806305 346.440063,190.523026 344.823242,186.888214 
	C349.591919,186.860184 350.437866,190.958374 350.629822,194.350601 
	C351.096985,202.605087 350.875122,210.904648 350.704712,219.181412 
	C350.683319,220.221771 349.303253,221.234192 348.277710,222.125290 
z"/>
<path fill="#ECC066" opacity="1.000000" stroke="none" 
	d="
M296.101959,276.267120 
	C296.419739,286.448303 296.453949,296.856323 296.375122,307.687561 
	C295.921356,307.554291 295.277740,306.993896 295.284973,306.442017 
	C295.416046,296.458740 295.625610,286.476471 296.101959,276.267120 
z"/>
<path fill="#EBB35E" opacity="1.000000" stroke="none" 
	d="
M383.010895,279.821259 
	C382.565369,278.628723 382.363556,277.174530 382.121094,275.353210 
	C382.471832,276.510620 382.863220,278.035095 383.010895,279.821259 
z"/>
<path fill="#ECC066" opacity="1.000000" stroke="none" 
	d="
M297.277954,270.882935 
	C297.486725,271.498810 297.454895,272.373077 297.292847,273.661377 
	C297.120880,273.097382 297.079132,272.119324 297.277954,270.882935 
z"/>
<path fill="#B8934B" opacity="1.000000" stroke="none" 
	d="
M344.385559,186.254898 
	C344.090912,186.349686 343.769165,186.249100 343.218475,186.039551 
	C343.445862,185.973557 343.902161,186.016541 344.385559,186.254898 
z"/>
<path fill="#ECC066" opacity="1.000000" stroke="none" 
	d="
M297.090088,308.970032 
	C296.968018,308.886230 297.454498,308.826599 297.698914,308.809265 
	C297.943298,308.791901 297.609314,309.072968 297.609314,309.072968 
	C297.609314,309.072968 297.212128,309.053802 297.090088,308.970032 
z"/>
</svg>