<svg version="1.1" id="Layer_1" xmlns="http://www.w3.org/2000/svg" xmlns:xlink="http://www.w3.org/1999/xlink" x="0px" y="0px"
	 width="100%" viewBox="0 0 1024 1024" enable-background="new 0 0 1024 1024" xml:space="preserve">
<path fill="#000000" opacity="1.000000" stroke="none" 
	d="
M381.512695,565.687134 
	C350.591064,555.713379 337.899872,529.328735 341.152069,500.438263 
	C344.692444,468.988098 361.095337,444.470795 383.688049,423.491272 
	C402.129120,406.366882 423.055634,392.829987 445.289856,381.215118 
	C445.880554,380.906525 446.459137,380.574493 447.052551,380.271332 
	C448.890350,379.332550 450.478546,378.470215 449.878418,375.757080 
	C449.268768,373.000946 447.600250,372.549133 445.215912,372.317261 
	C428.339050,370.675751 411.533691,368.585327 395.159760,363.911438 
	C347.080444,350.187408 317.431580,318.373444 303.630768,270.897186 
	C298.992889,254.942307 295.465149,238.653793 288.820374,223.299149 
	C283.436279,210.857712 276.265106,199.851883 265.582977,191.302490 
	C263.522888,189.653687 261.093689,187.825867 261.920654,184.734467 
	C262.716339,181.760040 265.506317,181.123825 268.192902,180.562302 
	C278.479645,178.412201 288.928192,177.720581 299.380585,177.241486 
	C335.540680,175.584137 371.312897,177.346466 405.230408,191.703476 
	C446.108246,209.006714 469.771484,240.094574 477.425903,283.602478 
	C480.372650,300.352081 480.331818,317.029816 475.593140,333.502502 
	C473.454559,340.936798 470.076202,347.764709 465.200134,353.820587 
	C462.401367,357.296570 462.960175,369.275726 465.938751,372.421722 
	C467.850037,374.440460 469.693542,372.953247 471.455139,372.385986 
	C490.312317,366.313965 509.450500,361.309845 528.927307,357.724121 
	C550.924194,353.674500 573.134338,351.624359 595.462891,353.730072 
	C624.408508,356.459747 652.376404,362.940857 676.736816,379.823090 
	C696.696045,393.655151 711.263550,411.592560 715.524963,436.310333 
	C719.172607,457.468567 712.347473,475.711334 699.094299,491.885284 
	C683.114868,511.386292 661.801697,523.331238 639.151062,533.097168 
	C600.063721,549.950012 558.921753,559.247559 516.985901,565.387390 
	C487.182526,569.750916 457.279755,572.814636 427.080597,572.492126 
	C411.660645,572.327393 396.566803,570.655212 381.512695,565.687134 
M431.960022,404.503632 
	C414.489990,415.360352 397.925262,427.398071 384.143707,442.805084 
	C368.648773,460.127563 357.114868,479.354340 355.071564,503.313507 
	C352.709198,531.013489 365.422394,546.981445 385.963470,553.984192 
	C406.855591,561.106628 428.376770,560.465027 449.754395,559.338013 
	C477.460358,557.877258 505.050629,554.559814 532.393066,549.652954 
	C569.639893,542.968689 606.290466,534.121704 640.699951,517.817383 
	C659.033630,509.130280 676.202026,498.694946 689.371094,482.771606 
	C704.763916,464.159210 707.090820,440.718292 695.617065,420.412476 
	C680.312622,393.327423 655.189026,380.443451 626.576355,372.594025 
	C625.096985,372.188171 623.614746,372.356750 622.193176,373.029541 
	C608.995483,379.275604 597.719177,387.904297 589.405518,400.024963 
	C580.958496,412.340149 578.043335,426.101624 579.307556,440.872253 
	C579.647400,444.843536 578.248901,447.947662 573.928406,448.469543 
	C569.368958,449.020355 567.359802,446.243134 566.653687,442.067108 
	C563.681213,424.487457 567.392029,408.416931 577.211182,393.598572 
	C583.659607,383.867096 592.304016,376.407837 601.662109,369.576508 
	C600.055908,367.628204 598.100342,367.395569 596.079956,367.367188 
	C588.084351,367.254822 580.064331,367.504822 572.099182,366.955322 
	C562.946777,366.323975 555.679443,370.026184 548.745972,375.317810 
	C522.546875,395.313232 510.408508,422.243439 509.350311,454.692383 
	C509.177582,459.988708 507.133820,462.526855 502.945404,462.299011 
	C498.338074,462.048401 496.735321,459.108612 496.666382,454.891449 
	C496.216248,427.356110 504.086914,402.766327 522.285339,381.736572 
	C524.629639,379.027557 527.651917,376.809875 529.184326,373.576752 
	C527.957336,370.930145 526.112976,371.828369 524.335815,372.163391 
	C506.804779,375.468109 489.830597,380.800659 472.790771,385.959320 
	C467.671631,387.509094 466.858917,390.366241 467.426849,394.839081 
	C469.478363,410.995667 468.453186,427.036774 465.306244,442.964935 
	C462.570526,456.811676 457.799042,469.902008 449.983673,481.717957 
	C447.042603,486.164429 443.142487,487.016296 439.775482,484.642761 
	C436.478973,482.319031 436.095337,478.328949 438.821869,474.064911 
	C442.422241,468.434326 445.438141,462.543976 447.686188,456.219177 
	C453.232056,440.616425 454.581757,424.424591 454.539948,408.064484 
	C454.527557,403.226105 453.605377,398.390045 453.051117,393.084015 
	C445.316803,396.281311 439.136169,400.552460 431.960022,404.503632 
M421.673492,356.672943 
	C423.648590,356.952026 425.626282,357.213959 427.598022,357.514954 
	C429.589172,357.819000 431.305359,357.452087 432.205017,355.453491 
	C434.149414,351.133911 437.408691,348.779144 442.742279,348.998871 
	C434.303833,330.306000 424.272461,313.277191 412.403992,297.362793 
	C397.059570,276.787476 379.023956,258.925964 357.850555,244.301682 
	C354.575378,242.039520 351.225067,239.747955 348.960327,236.348038 
	C346.942169,233.318298 347.217102,230.348389 349.743683,227.710281 
	C352.133545,225.214905 354.679413,225.519653 357.352875,227.373917 
	C383.250305,245.335938 406.666321,265.913513 425.255157,291.602203 
	C436.086151,306.570068 445.862183,322.184235 453.881348,338.880035 
	C461.131805,334.424225 461.899597,333.343750 463.534393,325.941040 
	C466.857849,310.891541 466.576416,295.776978 463.085114,280.903656 
	C451.849457,233.038589 420.034515,206.384918 373.529419,195.403503 
	C357.099426,191.523849 340.238220,191.246902 323.467712,190.391708 
	C311.248413,189.768585 299.136658,191.393295 286.945862,192.117462 
	C286.838745,193.608505 287.940430,194.499374 288.653809,195.581055 
	C294.987244,205.184570 300.733521,215.016769 304.597778,225.999725 
	C309.742737,240.622742 313.021088,255.735916 317.351318,270.566650 
	C327.929535,306.796570 349.359558,333.337341 385.188782,347.202942 
	C396.719604,351.665253 408.618317,354.660797 421.673492,356.672943 
z"/>
<path fill="#000000" opacity="1.000000" stroke="none" 
	d="
M525.672241,649.010376 
	C525.672974,647.845642 525.673340,647.179138 525.674072,646.512695 
	C525.687195,634.582947 526.545959,633.922974 538.956482,636.305420 
	C540.270752,642.820862 540.370850,708.911987 539.033569,716.735535 
	C534.862427,717.723267 530.554138,717.247253 526.280579,717.066467 
	C523.707947,716.957581 522.893677,714.556946 521.720886,712.831482 
	C510.770508,696.721497 499.895416,680.560486 488.947632,664.448792 
	C487.943085,662.970398 487.224213,661.174683 485.434265,660.335571 
	C484.051575,660.740112 484.333588,661.903137 484.417694,662.796509 
	C485.967438,679.253357 484.568237,695.748474 485.113403,712.214966 
	C485.230499,715.752563 484.095856,717.609924 480.295624,717.232849 
	C478.976959,717.102051 477.617859,717.113892 476.301910,717.269226 
	C471.920929,717.786499 470.541718,715.915344 470.572083,711.555969 
	C470.734650,688.230652 470.729309,664.902771 470.544830,641.577698 
	C470.509155,637.070862 471.904114,635.823181 476.465851,635.490295 
	C483.603455,634.969482 487.866089,637.391724 491.744415,643.520142 
	C502.313507,660.221130 513.668457,676.424927 525.180847,693.521973 
	C526.114136,678.372498 525.458496,663.931702 525.672241,649.010376 
z"/>
<path fill="#000000" opacity="1.000000" stroke="none" 
	d="
M154.131592,660.187012 
	C146.022964,679.530823 154.289841,699.688171 172.273163,704.888794 
	C177.666550,706.448547 183.177917,706.184143 188.498032,704.437622 
	C197.442398,701.501465 200.737839,695.323914 198.627075,686.154358 
	C198.252991,684.529297 197.454987,683.883423 195.908112,683.911011 
	C194.075821,683.943604 192.243195,684.018616 190.411331,684.003296 
	C183.649429,683.946716 183.693207,683.799622 183.582474,676.896362 
	C183.522415,673.152527 184.541931,671.421082 188.623734,671.589172 
	C194.944977,671.849548 201.288162,671.759583 207.616272,671.595520 
	C210.929779,671.509583 212.463791,672.498047 212.382324,676.104370 
	C212.198013,684.265320 212.268768,692.434265 212.372543,700.598206 
	C212.405151,703.164185 211.455917,704.990540 209.576111,706.659180 
	C195.344727,719.292419 178.954773,722.075989 161.681351,715.248901 
	C144.585876,708.492065 136.474991,694.193787 135.886963,676.388184 
	C135.052292,651.114685 153.142914,632.652649 178.121750,632.582642 
	C187.411484,632.556641 195.941742,634.446411 203.610611,639.726440 
	C204.962677,640.657288 206.303040,641.795532 207.211960,643.134583 
	C208.538773,645.089233 211.856293,646.723938 208.955765,649.823425 
	C205.118225,653.924255 201.197906,654.643616 197.945496,651.865662 
	C183.906235,639.874695 163.734329,643.561890 154.131592,660.187012 
z"/>
<path fill="#000000" opacity="1.000000" stroke="none" 
	d="
M275.432922,637.174683 
	C286.737274,639.870117 292.085358,647.425964 293.073639,657.942383 
	C293.960480,667.379456 290.538757,675.361877 281.911621,680.232605 
	C278.248840,682.300537 277.953064,684.080383 280.358582,687.600281 
	C286.721741,696.911377 292.632202,706.531799 299.235901,716.829102 
	C293.534912,717.503357 288.488434,717.423035 283.479095,716.934387 
	C281.508423,716.742249 280.830841,714.532959 279.881714,713.027405 
	C275.177460,705.564880 270.592133,698.027344 265.902557,690.555481 
	C263.338013,686.469421 258.832062,684.961243 254.336502,686.324890 
	C251.838623,687.082520 252.230209,689.047607 252.215302,690.787476 
	C252.153946,697.948792 252.068130,705.113708 252.232925,712.271667 
	C252.317673,715.952271 250.822617,717.172791 247.224091,717.261169 
	C237.653580,717.496338 237.655502,717.628540 237.654892,707.865173 
	C237.653519,685.879883 237.772202,663.893372 237.558701,641.910156 
	C237.512894,637.192505 238.802521,635.341431 243.709518,635.624817 
	C254.145340,636.227356 264.684143,634.554871 275.432922,637.174683 
M260.424133,673.659790 
	C264.315033,673.894958 268.053680,673.359192 271.526062,671.470703 
	C276.068237,669.000305 279.285065,663.133789 278.552521,658.654236 
	C277.778107,653.918640 273.836121,650.256104 268.406799,648.982544 
	C264.116821,647.976257 259.791565,648.595398 255.484985,648.423950 
	C252.727509,648.314148 252.170166,650.030457 252.180237,652.297546 
	C252.200912,656.955750 252.173172,661.614136 252.188278,666.272339 
	C252.212173,673.645081 252.220139,673.645081 260.424133,673.659790 
z"/>
<path fill="#000000" opacity="1.000000" stroke="none" 
	d="
M759.641907,682.783630 
	C765.340454,668.356995 771.013245,654.331970 776.471436,640.223877 
	C777.719666,636.997375 779.345703,635.238586 783.011414,635.651428 
	C786.728455,636.070007 790.705750,634.479675 792.762634,639.908875 
	C802.353577,665.225647 812.319946,690.400269 822.136658,715.586243 
	C814.165283,719.833923 807.362305,717.457520 804.401428,709.669006 
	C803.928894,708.426086 803.398010,707.205261 802.926208,705.962097 
	C797.872375,692.647095 801.281799,695.603699 786.924988,695.049255 
	C785.596497,694.997925 784.263245,695.077698 782.932068,695.087769 
	C769.836121,695.187073 769.836060,695.186462 765.173218,707.377014 
	C761.030579,718.207520 759.467529,719.018921 746.527649,716.367981 
	C750.900024,705.206299 755.219116,694.180664 759.641907,682.783630 
M789.628113,669.752136 
	C787.477478,665.792358 787.246094,660.963135 784.043457,656.781494 
	C780.746948,665.522949 777.677063,673.663391 774.469238,682.169678 
	C781.236145,682.169678 787.244446,682.169678 793.579651,682.169678 
	C793.210876,677.644287 791.069946,674.205200 789.628113,669.752136 
z"/>
<path fill="#000000" opacity="1.000000" stroke="none" 
	d="
M423.000000,717.255615 
	C415.835724,717.265503 409.161499,717.056702 402.510590,717.359619 
	C397.891235,717.570007 396.363312,716.511780 396.455017,711.296753 
	C396.865051,687.979004 396.788239,664.648254 396.513214,641.326599 
	C396.456421,636.511230 398.038696,635.479614 402.441132,635.554688 
	C415.265350,635.773315 428.096436,635.561768 440.924591,635.601501 
	C443.211090,635.608582 445.572845,635.355835 448.295227,636.504639 
	C448.295227,639.151062 448.161163,641.948486 448.330627,644.727356 
	C448.523590,647.891724 447.083282,648.670044 444.138885,648.613708 
	C434.813263,648.435120 425.482117,648.562256 416.154938,648.436829 
	C412.645508,648.389648 410.913971,649.526001 411.206757,653.362793 
	C411.484863,657.007019 411.452637,660.700256 411.225037,664.351196 
	C410.960388,668.595825 412.854828,669.834839 416.869385,669.708313 
	C424.192688,669.477539 431.534729,669.834167 438.857391,669.593628 
	C444.510834,669.407898 443.111511,673.341919 443.292450,676.413147 
	C443.477417,679.552124 443.592438,682.418457 438.894012,682.267395 
	C431.238403,682.021545 423.566132,682.334412 415.905975,682.171509 
	C412.446320,682.098022 411.080444,683.372253 411.223785,686.827820 
	C411.403168,691.152283 411.425995,695.496155 411.234894,699.819214 
	C411.068237,703.590210 412.733948,704.743286 416.313629,704.679321 
	C425.140900,704.521729 433.985687,704.919739 442.798279,704.528320 
	C447.904205,704.301453 448.491302,706.709900 448.413483,710.825928 
	C448.340240,714.699036 448.335571,717.663879 442.987122,717.329834 
	C436.515106,716.925598 429.997742,717.247559 423.000000,717.255615 
z"/>
<path fill="#000000" opacity="1.000000" stroke="none" 
	d="
M681.126221,635.701843 
	C696.257568,635.696777 710.900879,635.696777 725.715088,635.696777 
	C726.820129,639.978760 726.433716,643.859131 725.817200,648.399658 
	C718.403259,648.399658 711.115112,648.400330 703.826965,648.399475 
	C690.334473,648.398010 690.334473,648.397644 690.341919,661.631470 
	C690.346436,669.637634 690.346436,669.643127 698.602417,669.651123 
	C706.250671,669.658630 713.898987,669.652710 721.249207,669.652710 
	C721.740051,670.316895 722.077393,670.564392 722.108582,670.845764 
	C723.364258,682.173157 723.360718,682.169128 712.089478,682.206116 
	C706.424683,682.224731 700.753418,682.437683 695.097290,682.230835 
	C691.312134,682.092407 690.081482,683.613708 690.277832,687.234863 
	C690.503052,691.388184 690.574097,695.580505 690.269653,699.723328 
	C689.962830,703.898376 691.848206,704.808228 695.581848,704.723999 
	C704.241394,704.528687 712.915894,704.880005 721.569397,704.580444 
	C726.448425,704.411499 726.438721,707.196594 726.360413,710.616211 
	C726.284058,713.955200 727.040405,717.368713 721.655823,717.287903 
	C707.830017,717.080505 693.998474,717.152588 680.170410,717.262207 
	C676.633789,717.290222 675.601501,715.769714 675.612427,712.443359 
	C675.691223,688.450989 675.707031,664.457886 675.588074,640.465881 
	C675.569275,636.673096 677.099182,635.326294 681.126221,635.701843 
z"/>
<path fill="#000000" opacity="1.000000" stroke="none" 
	d="
M334.259979,700.593018 
	C334.080322,704.419495 336.264618,704.690369 338.848938,704.676575 
	C347.674713,704.629517 356.509064,704.890686 365.323975,704.578430 
	C371.051910,704.375549 370.088745,708.099915 370.299103,711.520142 
	C370.532135,715.309204 369.595215,717.385559 365.125671,717.317017 
	C351.640137,717.110107 338.147339,717.140198 324.661377,717.343018 
	C320.625153,717.403687 319.572205,715.842651 319.591125,712.060913 
	C319.709442,688.414368 319.716156,664.766479 319.576355,641.120117 
	C319.552246,637.041321 320.870789,635.577515 325.018921,635.636475 
	C338.338104,635.825867 351.669769,635.963379 364.980682,635.575073 
	C372.026489,635.369507 369.766907,640.110596 370.244049,643.641846 
	C370.818146,647.890808 368.571869,648.636414 364.935547,648.553162 
	C356.280334,648.354980 347.617340,648.520508 338.960083,648.379456 
	C335.606537,648.324890 334.031769,649.508911 334.182159,653.020691 
	C334.352966,657.010315 334.377533,661.019287 334.191650,665.007080 
	C334.031952,668.433289 335.291962,669.788696 338.806610,669.694275 
	C345.795776,669.506470 352.793823,669.607056 359.787598,669.663269 
	C361.569305,669.677551 363.454254,669.249573 365.066406,670.334290 
	C365.226471,670.706238 365.454254,670.998169 365.466888,671.299133 
	C365.923798,682.178528 365.920990,682.179993 355.060181,682.194824 
	C349.564819,682.202332 344.067230,682.299561 338.574890,682.172302 
	C335.325134,682.097046 334.105560,683.488647 334.204620,686.656372 
	C334.345123,691.148438 334.247070,695.647888 334.259979,700.593018 
z"/>
<path fill="#000000" opacity="1.000000" stroke="none" 
	d="
M846.199951,635.749084 
	C860.337769,635.731140 874.003174,635.950623 887.654785,635.612732 
	C893.087463,635.478210 893.388000,638.147888 893.430359,642.349487 
	C893.473511,646.622864 892.587280,648.713867 887.667603,648.503784 
	C878.854614,648.127563 870.011414,648.522095 861.186462,648.332825 
	C857.501099,648.253845 856.037659,649.548767 856.238098,653.252380 
	C856.453918,657.239075 856.577881,661.269836 856.234924,665.237549 
	C855.835754,669.855408 857.871338,670.904175 862.060181,670.754517 
	C869.713440,670.481262 877.386108,670.791321 885.044800,670.610046 
	C888.789185,670.521423 890.776611,671.636780 890.329407,675.701355 
	C890.166443,677.182129 890.223877,678.703369 890.334961,680.194763 
	C890.564697,683.278931 889.069824,684.259521 886.154236,684.228088 
	C877.826172,684.138428 869.493591,684.344177 861.168274,684.172424 
	C857.506897,684.096924 856.137756,685.358704 856.242188,689.083374 
	C856.452271,696.573608 856.151855,704.077881 856.348145,711.568848 
	C856.452942,715.568054 855.120605,717.598022 850.928955,717.172668 
	C850.434387,717.122498 849.930237,717.168152 849.430481,717.168274 
	C841.676270,717.169373 841.668213,717.169373 841.666138,709.532715 
	C841.660034,686.877197 841.662354,664.221680 841.657410,641.566162 
	C841.656799,638.674377 841.363525,635.594055 846.199951,635.749084 
z"/>
<path fill="#000000" opacity="1.000000" stroke="none" 
	d="
M315.683044,772.177490 
	C315.686676,769.560608 316.870300,768.750854 318.863464,768.809937 
	C327.163940,769.055908 335.478973,768.223328 343.772156,769.478027 
	C350.071320,770.431091 354.687469,773.210999 356.606171,779.584900 
	C358.483765,785.822144 357.090088,791.048828 351.872894,795.128357 
	C351.500244,795.419800 351.247894,795.865051 350.637787,796.604675 
	C354.160217,799.608521 357.666260,802.651184 358.298920,807.637207 
	C359.628265,818.113953 352.665985,825.858582 341.141724,826.259216 
	C334.327667,826.496216 327.492157,826.116699 320.678284,826.355835 
	C316.666626,826.496643 315.551392,824.889465 315.587769,821.083313 
	C315.742157,804.943787 315.660095,788.801941 315.683044,772.177490 
M333.580048,802.297424 
	C331.326385,802.811279 328.044159,800.763306 327.386841,805.135193 
	C325.779236,815.827637 327.032715,817.353210 337.636963,816.976196 
	C338.792603,816.935120 339.964722,816.899414 341.094910,816.682434 
	C345.029968,815.926819 347.385071,813.328979 347.467194,809.510437 
	C347.554047,805.469055 344.578278,803.322571 340.929321,802.525391 
	C338.866394,802.074646 336.644287,802.352478 333.580048,802.297424 
M339.474274,778.598816 
	C336.491882,778.520691 333.509796,778.425293 330.526978,778.371765 
	C329.108978,778.346313 328.022888,778.731750 327.480469,780.314575 
	C324.546570,788.876282 327.920013,793.260132 336.947021,792.730957 
	C341.273956,792.477356 344.411957,790.611145 345.376495,786.382996 
	C346.292053,782.369934 343.338898,780.436279 339.474274,778.598816 
z"/>
<path fill="#000000" opacity="1.000000" stroke="none" 
	d="
M643.989136,717.244873 
	C632.164551,717.240295 620.834167,717.051941 609.514465,717.316711 
	C604.860168,717.425537 603.552368,715.771423 603.587524,711.251038 
	C603.768921,687.934082 603.759949,664.614136 603.573914,641.297180 
	C603.538696,636.890442 604.965820,635.125305 609.313843,635.671204 
	C610.626221,635.836060 611.991699,635.840271 613.305176,635.684692 
	C617.320679,635.209229 618.426392,637.040771 618.398621,640.878479 
	C618.257446,660.364990 618.442749,679.853943 618.269287,699.339844 
	C618.232117,703.506958 619.583435,704.845337 623.710999,704.733337 
	C633.031494,704.480103 642.377563,704.956726 651.685303,704.528259 
	C657.294861,704.270020 657.202393,707.271179 657.361877,711.307678 
	C657.539124,715.797180 656.210327,717.868713 651.477417,717.292664 
	C649.179565,717.013062 646.819519,717.243774 643.989136,717.244873 
z"/>
<path fill="#000000" opacity="1.000000" stroke="none" 
	d="
M639.844971,798.860046 
	C638.318298,799.842651 636.711670,800.081604 635.510559,802.196655 
	C640.336243,809.626770 645.349792,817.346069 650.414124,825.143555 
	C642.069031,828.181458 638.285034,826.954712 633.993286,820.068542 
	C631.089783,815.410095 628.137756,810.777832 625.386902,806.029907 
	C623.989136,803.617371 622.094360,802.831543 619.551392,803.438843 
	C616.789124,804.098572 617.402100,806.452148 617.375122,808.347534 
	C617.308716,813.008850 617.221924,817.677490 617.409485,822.332397 
	C617.574585,826.429810 614.957520,826.424377 612.156250,826.279724 
	C609.351807,826.134949 605.752869,827.292542 605.759216,822.382996 
	C605.780884,805.732117 605.756531,789.081238 605.744019,772.430359 
	C605.742432,770.357666 606.310608,768.750610 608.783264,768.818359 
	C616.430115,769.027771 624.095703,768.272644 631.727051,769.285156 
	C638.527466,770.187439 643.646484,773.034912 645.531372,780.265259 
	C647.435120,787.567932 646.051758,793.736145 639.844971,798.860046 
M617.485229,791.869446 
	C621.303162,795.446472 630.312866,794.679749 633.294373,790.524170 
	C635.802063,787.029053 635.100098,782.207031 631.575684,780.020325 
	C627.647461,777.583069 623.045776,777.529785 619.099731,778.953369 
	C615.716064,780.173950 617.816711,784.248047 617.385193,787.030945 
	C617.184814,788.322998 617.376953,789.675842 617.485229,791.869446 
z"/>
<path fill="#000000" opacity="1.000000" stroke="none" 
	d="
M500.772888,768.702271 
	C502.654205,768.817627 504.088654,768.935791 506.101868,769.101624 
	C504.571960,772.910950 501.804016,775.140259 499.697327,777.778015 
	C496.482056,781.803772 493.267242,785.896851 489.554352,789.439453 
	C485.795105,793.026306 485.703247,795.742920 489.112488,799.779663 
	C495.003204,806.754333 500.267395,814.259216 505.763123,821.565186 
	C506.634918,822.724121 507.767365,823.831543 507.457092,825.513184 
	C498.724731,827.945679 495.112671,826.862854 490.159027,820.055969 
	C485.876373,814.171082 481.741516,808.178650 477.547119,802.241943 
	C472.715668,805.139526 471.838348,809.442749 472.274597,814.363525 
	C472.435577,816.179016 472.305939,818.021484 472.286713,819.851501 
	C472.218964,826.305786 472.120026,826.195435 465.445129,826.391968 
	C461.284637,826.514404 459.479340,825.396301 459.548767,820.823120 
	C459.786255,805.187500 459.865875,789.541443 459.531586,773.909485 
	C459.412262,768.330322 462.518951,768.794373 466.170258,768.734070 
	C469.842346,768.673401 472.722443,768.739990 472.384155,773.827209 
	C472.013733,779.397461 472.299835,785.011414 472.299835,791.893066 
	C478.615753,786.550842 482.713684,780.918762 486.694366,775.406494 
	C490.273834,770.449829 494.154236,767.652405 500.772888,768.702271 
z"/>
<path fill="#000000" opacity="1.000000" stroke="none" 
	d="
M426.323853,826.311523 
	C422.721008,826.458252 422.015839,824.057678 421.507904,821.798523 
	C419.897308,814.634644 416.083740,810.862976 408.279358,812.443115 
	C406.684937,812.765930 404.922577,812.665039 403.302917,812.383789 
	C397.628601,811.398132 394.948059,814.144958 393.112213,819.247375 
	C390.420471,826.728455 390.135681,826.638000 381.967041,826.298584 
	C380.827820,826.251282 379.696106,826.022888 378.689880,825.894714 
	C377.619568,824.109436 378.668732,822.814880 379.217224,821.496887 
	C385.992035,805.216797 392.883148,788.984253 399.513641,772.645752 
	C400.839661,769.378357 402.816833,768.289062 405.990936,768.769226 
	C409.155457,769.247925 413.089325,767.147949 414.941742,771.929688 
	C421.670563,789.299255 428.555786,806.608215 435.361328,823.948120 
	C435.531372,824.381409 435.461151,824.908997 435.532532,825.734497 
	C432.656097,826.870117 429.664276,826.143372 426.323853,826.311523 
M407.454254,803.633301 
	C409.472565,803.328003 411.809662,804.417358 413.764984,801.925049 
	C411.643768,796.271973 409.453339,790.434448 406.996490,783.886963 
	C404.408478,790.871399 402.156067,796.950012 399.680481,803.630981 
	C402.648163,803.630981 404.618286,803.630981 407.454254,803.633301 
z"/>
<path fill="#000000" opacity="1.000000" stroke="none" 
	d="
M556.992432,768.765869 
	C559.986450,768.763428 562.482788,768.744873 564.978821,768.760620 
	C571.135864,768.799622 571.494873,769.311218 571.265015,775.246765 
	C571.148865,778.244995 569.948425,779.391235 567.006897,779.315735 
	C562.350586,779.196228 557.686035,779.390320 553.030151,779.263672 
	C549.649353,779.171753 548.038452,780.535156 548.294128,783.974854 
	C548.367920,784.967773 548.412231,785.985291 548.282959,786.966919 
	C547.694153,791.435120 549.356262,793.526062 554.084717,793.019409 
	C556.718079,792.737244 559.412598,793.077698 562.065063,792.909058 
	C565.444092,792.694336 567.340149,793.494141 567.284546,797.505310 
	C567.233765,801.170715 566.008240,802.649841 562.325623,802.413391 
	C559.177551,802.211182 556.000488,802.501282 552.844299,802.373291 
	C549.744507,802.247620 548.396851,803.371216 548.241150,806.657349 
	C547.762329,816.762268 547.648987,816.755737 557.913208,816.738403 
	C560.575806,816.733887 563.249512,816.893250 565.898254,816.702148 
	C569.621338,816.433411 571.349182,817.635437 571.313232,821.714111 
	C571.278198,825.696350 569.335999,826.405945 566.000549,826.361145 
	C557.681458,826.249512 549.359070,826.255737 541.039734,826.354980 
	C537.906433,826.392334 536.585693,825.266235 536.606628,821.991760 
	C536.711060,805.684082 536.707153,789.375061 536.618286,773.067200 
	C536.600769,769.850830 537.815979,768.581665 541.019348,768.678101 
	C546.173950,768.833313 551.335754,768.748657 556.992432,768.765869 
z"/>
<path fill="#000000" opacity="1.000000" stroke="none" 
	d="
M690.375610,781.699768 
	C691.898743,784.473999 692.400635,787.376404 694.752258,789.829102 
	C697.140381,784.866089 699.791077,780.259033 701.603638,775.342957 
	C703.508667,770.176086 706.604126,767.902283 712.064880,768.732849 
	C713.666504,768.976440 715.372009,768.458313 716.828491,769.179688 
	C717.642761,770.801575 716.648560,771.914124 716.053406,773.034058 
	C714.649963,775.675110 713.217285,778.310242 711.624329,780.839355 
	C703.893799,793.113220 697.819031,805.825745 700.295654,820.983948 
	C701.065491,825.695740 698.397827,826.365906 694.407471,826.401428 
	C690.207214,826.438721 688.070435,825.316040 688.658630,820.774231 
	C690.309875,808.024597 687.053162,796.592346 679.931946,785.918701 
	C676.580566,780.895508 674.318298,775.145569 671.398926,769.403259 
	C675.572266,768.270630 679.194397,768.832886 682.777527,768.920837 
	C684.563232,768.964600 685.165222,770.479004 685.803101,771.859619 
	C687.267700,775.029907 688.757812,778.188538 690.375610,781.699768 
z"/>
<path fill="#000000" opacity="1.000000" stroke="none" 
	d="
M344.831848,404.027527 
	C346.117615,401.266724 347.075195,398.747864 348.496918,396.526062 
	C350.050140,394.098785 352.517700,392.853546 355.389404,393.910950 
	C358.039368,394.886658 359.712646,396.893372 359.927521,399.912476 
	C360.264740,404.650513 356.681671,410.063385 352.126648,411.578705 
	C346.204102,413.548920 343.488403,410.921112 344.831848,404.027527 
z"/>
<path fill="#000000" opacity="1.000000" stroke="none" 
	d="
M599.422974,350.314178 
	C601.619873,350.076019 603.639709,349.360931 605.164062,351.282654 
	C601.739868,353.907135 599.820190,353.612000 599.422974,350.314178 
z"/>
</svg>